<?xml version="1.0" encoding="utf-8"?>
<!-- Generator: Adobe Illustrator 23.0.4, SVG Export Plug-In . SVG Version: 6.00 Build 0)  -->
<svg version="1.1" id="圖層_1" xmlns="http://www.w3.org/2000/svg" xmlns:xlink="http://www.w3.org/1999/xlink" x="0px" y="0px"
	 viewBox="0 0 700.2 213.5" style="enable-background:new 0 0 700.2 213.5;" xml:space="preserve">
<style type="text/css">
	.st0{fill:#371D1D;}
	.st1{fill:#381D1D;}
	.st2{fill:#FBEBE2;}
	.st3{opacity:0.5;fill:#F2D2C2;}
	.st4{fill:#D04E45;}
	.st5{fill:#FFFFFF;}
</style>
<g>
	<g>
		<g>
			<path class="st0" d="M271.6,210.2c-0.7,0-1.3-0.3-1.8-0.7c-0.5-0.5-0.8-1.2-0.8-1.9v-26.1c0-0.7,0.2-1.4,0.7-1.9
				c0.5-0.5,1.1-0.7,1.9-0.7H297c0.8,0,1.4,0.3,1.9,0.8c0.4,0.5,0.6,1.1,0.7,1.8v26.1c0,0.7-0.3,1.3-0.7,1.9
				c-0.5,0.5-1.1,0.7-1.9,0.8H271.6z M278.4,202.4h-4.3c-0.4,0-0.6-0.1-0.9-0.3c-0.2-0.2-0.3-0.5-0.3-0.9c0-0.3,0.1-0.6,0.3-0.8
				c0.2-0.2,0.5-0.3,0.9-0.3h15.3v-1.8l-14.7,0.5c-0.4,0-0.7-0.1-1-0.3c-0.2-0.2-0.4-0.5-0.4-0.9c0-0.4,0.1-0.7,0.3-1
				c0.2-0.3,0.6-0.4,1-0.4l8.4-0.2v-1.7h-7.1c-0.5,0-0.9-0.2-1.1-0.6c-0.3-0.4-0.5-0.8-0.5-1.4v-4.8c0-0.4,0.1-0.8,0.5-1.1
				c0.3-0.3,0.7-0.5,1.1-0.5h7.1v-1.3h-8.9c-0.3,0-0.6-0.1-0.8-0.3c-0.2-0.2-0.3-0.5-0.3-0.8c0-0.3,0.1-0.6,0.3-0.8
				c0.2-0.2,0.5-0.3,0.8-0.3h8.9v-1.3h-10.2c-0.3,0-0.5,0.1-0.7,0.3c-0.2,0.2-0.3,0.5-0.3,0.7v24.3c0,0.3,0.1,0.5,0.3,0.7
				c0.3,0.2,0.5,0.3,0.7,0.3h22.9c0.3,0,0.5-0.1,0.7-0.3c0.2-0.2,0.3-0.4,0.3-0.7v-24.3c0-0.3-0.1-0.6-0.3-0.8
				c-0.1-0.2-0.4-0.3-0.7-0.3h-9.9v1.3h8.3c0.3,0,0.6,0.1,0.7,0.2c0.2,0.2,0.3,0.5,0.3,0.8c0,0.3-0.1,0.6-0.3,0.7
				c-0.1,0.3-0.4,0.4-0.7,0.4h-8.3v1.3h6.6c0.5,0,1,0.1,1.4,0.5c0.3,0.3,0.5,0.7,0.5,1.1v4.8c0,0.5-0.2,0.9-0.6,1.4h-0.1
				c1.9,2.1,2.8,3.6,2.6,4.5c-0.1,0.3-0.3,0.6-0.6,0.8c-0.3,0.2-0.6,0.2-0.9,0.1c-0.3-0.1-0.6-0.3-0.8-0.7l-0.3-0.4h-1.4v0.1v1.8
				h3.1c0.4,0,0.6,0.1,0.9,0.3s0.3,0.5,0.3,0.8c0,0.3-0.1,0.6-0.3,0.9c-0.2,0.2-0.5,0.3-0.9,0.3h-3.1v2.2c-0.1,1.2-0.6,2.1-1.6,2.6
				c-1.1,0.6-2.7,0.6-4.5,0.1c-0.5-0.1-0.9-0.4-1-0.7c-0.2-0.3-0.2-0.7-0.1-1.1c0.2-1,0.9-1.3,1.8-1c1.1,0.3,1.9,0.3,2.2,0.1
				c0.3-0.1,0.4-0.4,0.4-0.7v-1.6h-9.6l0.1,0.1c1.7,1.4,2.6,2.5,2.6,3.2c0,0.4-0.2,0.6-0.5,0.9c-0.3,0.2-0.6,0.3-0.9,0.3
				c-0.3-0.1-0.6-0.3-0.9-0.6c-0.6-0.8-1.2-1.4-1.7-1.9c-0.3-0.2-0.5-0.6-0.6-0.9c0-0.3,0.1-0.6,0.3-0.9L278.4,202.4z M283.1,188
				H278c-0.4,0-0.6,0.1-0.7,0.2c-0.2,0.2-0.2,0.4-0.2,0.7v0.4h6V188z M283.1,191.2h-6v0.4c0,0.3,0.1,0.5,0.2,0.6
				c0.2,0.2,0.4,0.3,0.7,0.3h5.1V191.2z M285.8,189.3h5.7v-0.4c0-0.3-0.1-0.5-0.2-0.6c-0.1-0.2-0.4-0.3-0.7-0.3h-4.8V189.3z
				 M285.8,192.5h4.8c0.3,0,0.5-0.1,0.7-0.3l0.2-0.6v-0.4h-5.7V192.5z M291.4,194.4h-5.5v1.6l6.1-0.2c-0.4-0.6-0.6-1-0.6-1.2V194.4z
				"/>
			<path class="st0" d="M334.3,203.3c0.3-0.2,0.7-0.2,1-0.1c0.4,0.1,0.7,0.3,0.9,0.6c0.2,0.3,0.2,0.7,0.1,1.2
				c-0.4,1.5-1.1,3.2-2.1,5.2c-0.3,0.4-0.5,0.7-0.9,0.8c-0.4,0.1-0.7,0.1-1.1-0.1c-0.4-0.2-0.6-0.5-0.7-0.8c-0.1-0.4,0-0.7,0.2-1.2
				c0.9-1.8,1.6-3.3,1.9-4.5C333.7,203.8,334,203.5,334.3,203.3z M334.6,202.3c-0.6,0-1-0.2-1.3-0.6c-0.4-0.5-0.6-1-0.6-1.6V181
				c0-0.5,0.2-1,0.5-1.3c0.4-0.4,0.8-0.6,1.4-0.6h4.5c0.6,0,1.2,0.2,1.6,0.6c0.4,0.3,0.5,0.8,0.6,1.3v19.1c0,0.6-0.3,1.1-0.7,1.6
				c-0.5,0.5-1,0.6-1.5,0.6H334.6z M338.5,185.9V183c0-0.3-0.1-0.6-0.2-0.7c-0.2-0.3-0.4-0.4-0.8-0.4h-1c-0.4,0-0.7,0.1-0.8,0.3
				c-0.2,0.2-0.3,0.5-0.3,0.9v2.9H338.5z M338.5,192.6v-4.1h-3.1v4.1H338.5z M335.4,195.4v3.1c0,0.4,0.1,0.6,0.3,0.8
				c0.2,0.2,0.4,0.3,0.8,0.3h1c0.4,0,0.6-0.1,0.8-0.3c0.1-0.1,0.2-0.4,0.2-0.7v-3.1H335.4z M337.9,204.3c0.1-0.3,0.3-0.6,0.6-0.8
				c0.3-0.2,0.7-0.3,1-0.2c0.3,0.1,0.6,0.3,0.9,0.7c1.5,2.5,2.1,4.1,1.7,4.9c-0.2,0.3-0.4,0.5-0.8,0.6c-0.4,0.1-0.7,0.1-1,0
				c-0.3-0.1-0.5-0.5-0.7-0.9c-0.5-1.4-1-2.5-1.4-3.3C337.9,205,337.9,204.6,337.9,204.3z M346.8,209.8c0,0.5-0.1,0.8-0.4,1.1
				c-0.3,0.2-0.6,0.4-1,0.4c-0.4,0-0.7-0.1-1-0.3c-0.3-0.3-0.4-0.7-0.4-1.1v-3.6h-0.9c-0.4,0-0.7-0.1-0.9-0.4
				c-0.3-0.2-0.4-0.5-0.4-0.9c0-0.4,0.1-0.6,0.4-0.9c0.2-0.3,0.5-0.4,0.9-0.4h0.9v-7.6c0-0.6,0.2-1.2,0.7-1.6c0.5-0.5,1-0.7,1.7-0.7
				h5.9v-2h-9.1c-0.4,0-0.7-0.1-0.9-0.3c-0.3-0.3-0.4-0.5-0.4-0.9c0-0.3,0.1-0.6,0.4-0.9c0.2-0.3,0.5-0.4,0.9-0.4h4.8v-2h-3.1
				c-0.4,0-0.7-0.1-0.9-0.3c-0.2-0.3-0.3-0.5-0.3-0.9c0-0.3,0.1-0.6,0.3-0.9c0.2-0.3,0.5-0.4,0.9-0.4h3.1V183h-4.3
				c-0.4,0-0.7-0.1-0.9-0.3c-0.3-0.2-0.3-0.5-0.3-0.9c0-0.4,0.1-0.6,0.3-0.9c0.2-0.3,0.5-0.4,0.9-0.4h4.3c0-1.3,0.1-2.1,0.4-2.3
				c0.2-0.3,0.6-0.4,1-0.4c0.4,0,0.7,0.1,1,0.4c0.3,0.2,0.4,1,0.4,2.3h6c0-1.3,0.1-2.1,0.4-2.3c0.2-0.3,0.6-0.4,1-0.4
				c0.4,0,0.7,0.1,1,0.4c0.3,0.2,0.4,1,0.4,2.3h3.9c0.4,0,0.7,0.1,0.9,0.3c0.2,0.3,0.4,0.5,0.4,0.9c0,0.4-0.1,0.6-0.4,0.9
				c-0.2,0.2-0.5,0.4-0.9,0.4h-3.9v1.8h3.1c0.4,0,0.7,0.1,0.9,0.3c0.3,0.3,0.4,0.5,0.4,0.9c0,0.4-0.1,0.6-0.4,0.9
				c-0.2,0.3-0.5,0.4-0.9,0.4h-3.1v2h4.3c0.4,0,0.7,0.1,0.9,0.3c0.2,0.3,0.3,0.5,0.3,0.9c0,0.4-0.1,0.6-0.3,0.9
				c-0.2,0.3-0.5,0.4-0.9,0.4H355v2h5.7c0.6,0,1.2,0.2,1.6,0.7c0.5,0.5,0.7,1,0.7,1.7v7.6h0.7c0.4,0,0.7,0.1,0.9,0.3
				c0.2,0.2,0.3,0.5,0.3,0.9c0,0.3-0.1,0.6-0.3,0.9c-0.2,0.2-0.5,0.4-0.9,0.4h-0.7v2.4c0,1-0.5,1.8-1.4,2.3c-0.4,0.2-1,0.4-1.7,0.4
				c-2.5,0.1-4-0.3-4.5-1c-0.2-0.3-0.2-0.7-0.1-1.1c0.2-0.9,0.8-1.2,1.8-1c1.2,0.3,2,0.4,2.4,0.3c0.5-0.2,0.6-0.6,0.6-1.1v-1.2
				h-13.5V209.8z M352.3,196.2h-4.4c-0.3,0-0.5,0.1-0.7,0.3c-0.2,0.2-0.2,0.5-0.2,0.7v1.6h5.4V196.2z M352.3,203.7v-2.5h-5.4v2.5
				H352.3z M356.7,183h-6v1.8h6V183z M356.7,189.3v-2h-6v2H356.7z M355,198.7h5.3V197c0-0.2-0.1-0.4-0.3-0.6
				c-0.2-0.2-0.4-0.2-0.6-0.2H355V198.7z M360.3,203.7v-2.5H355v2.5H360.3z"/>
			<path class="st0" d="M402,185c0.2-0.1,0.4-0.1,0.7,0c0.2,0.1,0.4,0.2,0.5,0.4c0.1,0.2,0.2,0.5,0.1,0.8l-4.9,17.3
				c-0.1,0.3-0.2,0.5-0.4,0.7c-0.2,0.1-0.5,0.1-0.8,0c-0.2-0.1-0.4-0.3-0.5-0.5c-0.1-0.2-0.1-0.4,0-0.7l4.9-17.3
				C401.6,185.3,401.8,185.1,402,185z"/>
			<path class="st0" d="M437.2,187.9h-2.8c-0.5,0-0.9-0.1-1.1-0.4c-0.3-0.2-0.4-0.6-0.4-1.1c0-0.4,0.1-0.7,0.4-1.1
				c0.3-0.3,0.7-0.4,1.1-0.4h2.8v-5.4c0-0.5,0.1-0.9,0.4-1.2c0.2-0.3,0.6-0.4,1.1-0.5c0.4,0,0.7,0.1,1.1,0.4
				c0.3,0.3,0.5,0.7,0.5,1.2v5.4h2.5c0.5,0,0.8,0.1,1.1,0.4c0.3,0.3,0.4,0.6,0.4,1.1c0,0.4-0.1,0.8-0.4,1.1
				c-0.3,0.3-0.6,0.5-1.1,0.5h-2.5v6.2l1.8-1c0.4-0.2,0.8-0.4,1.2-0.2c0.3,0.1,0.6,0.3,0.9,0.7c0.3,0.4,0.3,0.8,0.3,1.2
				c-0.2,0.7-1.6,1.6-4.1,2.6v9.9c0,1.3-0.6,2.3-1.6,3.1c-0.6,0.4-1.6,0.5-2.9,0.4c-1.4-0.1-2.3-0.5-2.7-1.1
				c-0.1-0.4-0.2-0.7-0.1-1.1c0.3-1,1-1.3,2-1c1,0.2,1.7,0.2,2,0c0.2-0.2,0.3-0.6,0.3-1v-8l-2.6,0.8c-0.4,0.1-0.8,0.1-1.1-0.1
				c-0.4-0.2-0.6-0.5-0.7-0.9c-0.1-0.5-0.1-0.8,0-1.2c0.1-0.4,0.5-0.6,1-0.7l3.4-1V187.9z M445.5,179.4c0-0.5,0.1-0.9,0.4-1.1
				c0.3-0.3,0.6-0.4,1.1-0.4c0.4,0,0.8,0.1,1,0.4c0.3,0.2,0.5,0.6,0.5,1.1v7h3.6c0.4,0,0.8,0.1,1.1,0.4c0.3,0.3,0.4,0.6,0.4,1.1
				c0,0.4-0.1,0.8-0.4,1.1c-0.3,0.3-0.6,0.5-1.1,0.5h-3.6v15.7l2.6-1.4c0.4-0.2,0.8-0.3,1.2-0.2c0.3,0.1,0.6,0.3,0.9,0.7
				c0.3,0.4,0.3,0.8,0.3,1.2c-0.1,0.4-0.3,0.7-0.7,0.9l-1.2,0.7c-5,2.5-8.1,3.5-9.1,3.1c-0.4-0.2-0.6-0.5-0.7-1
				c-0.1-0.5-0.1-0.9,0-1.2c0.1-0.4,0.5-0.6,1-0.7l2.7-0.8V179.4z M462.8,183.4c0.3-0.4,0.7-0.6,1.1-0.6c0.4-0.1,0.7,0,1.1,0.3
				c0.3,0.3,0.5,0.6,0.6,1c0.1,1.4-2.7,4.4-8.4,9v12.7c0,0.5,0.2,0.9,0.5,1.2c0.3,0.3,0.7,0.5,1.2,0.5l2.2-0.1
				c0.8-0.3,1.2-1.6,1.2-3.6c0-2.6,0.2-4.1,0.4-4.4c0.2-0.3,0.6-0.5,1.1-0.5c0.4,0,0.7,0.1,1.1,0.4c0.3,0.3,0.5,0.7,0.5,1.2
				l-0.1,5.6c0,0.8-0.2,1.6-0.5,2.2c-0.3,0.8-0.9,1.4-1.8,1.8c-0.5,0.2-1.1,0.4-1.9,0.4h-3.2c-0.7-0.1-1.4-0.3-2.1-0.7
				c-1.1-0.7-1.6-1.7-1.6-3v-27.1c0-0.5,0.1-0.9,0.4-1.2c0.2-0.3,0.6-0.4,1.1-0.5c0.4,0,0.8,0.1,1.1,0.4c0.3,0.3,0.5,0.7,0.5,1.2
				v9.5C459.6,187.1,461.5,185.2,462.8,183.4z"/>
			<path class="st0" d="M497.9,191.4c-0.5,0-0.8,0-1.1-0.3c-0.3-0.3-0.5-0.6-0.6-1c0-0.5,0-0.8,0.3-1.1c0.3-0.3,0.5-0.5,1-0.5
				l5.2-1.4l-1.8-1.5c-1.4-1-2.1-1.7-2.2-2c-0.1-0.4,0-0.7,0.2-1.1c0.3-0.3,0.5-0.6,0.9-0.7c0.4-0.1,0.8,0,1.2,0.3
				c2.7,1.9,4.2,3.1,4.4,3.7l0.2-0.1c1.6-1.1,2.7-2.1,3.3-3.1c0.1-0.2,0.1-0.3,0-0.4c-0.1-0.1-0.3-0.2-0.7-0.2h-4.9
				c-0.5,0-0.7-0.1-1-0.4c-0.2-0.2-0.4-0.6-0.4-1c0-0.4,0.1-0.7,0.4-1c0.3-0.3,0.5-0.4,1-0.4h7.2c0.6,0,1.1,0.2,1.4,0.5
				c0.4,0.3,0.6,0.7,0.6,1.1c0.1,0.4,0,0.8-0.3,1.4c-1,1.7-2.6,3.5-4.6,5.2h0.6c0.6,0,1.1,0.2,1.5,0.7c0.4,0.5,0.6,1,0.6,1.5v4.1
				c0,0.6-0.2,1.1-0.6,1.5c-0.5,0.5-1.1,0.8-1.7,0.8h-4.7c-0.6,0-0.9,0.3-0.8,0.8v1.2c0,0.6,0.3,0.9,0.9,0.9h4.7
				c0.6,0,1.2,0.2,1.7,0.7c0.4,0.5,0.6,1.1,0.6,1.9l-0.1,3c-0.1,2.9-0.6,4.8-1.5,5.5c-0.9,0.6-2.4,0.9-4.3,0.7
				c-2.9-0.3-4.6-0.9-5-1.6c-0.2-0.4-0.2-0.8-0.1-1.1c0.2-0.5,0.4-0.8,0.7-1c0.4-0.2,0.8-0.2,1.3-0.1c1.9,0.5,3.4,0.8,4.4,0.8
				c0.5,0,0.9-0.2,1.2-0.6c0.3-0.4,0.5-0.7,0.5-1.1c0.1-2.5,0.1-4-0.1-4.3c-0.1-0.1-0.3-0.2-0.5-0.2h-5.1c-0.6,0-1.1-0.2-1.5-0.6
				c-0.4-0.4-0.6-0.9-0.6-1.4v-4.4c0-0.6,0.2-1.1,0.6-1.5c0.4-0.4,0.9-0.5,1.4-0.5h5c0.5,0,0.7-0.3,0.7-0.8v-1.6
				c0-0.5-0.3-0.7-0.7-0.7h-4.4C501.1,190.5,499.6,191,497.9,191.4z M511.9,210.9c-0.4,0.1-0.9,0-1.2-0.2c-0.4-0.3-0.5-0.6-0.6-1
				c-0.1-0.5,0-0.9,0.2-1.2c0.2-0.3,0.6-0.5,1-0.6c1.6-0.4,3.4-1.1,5.4-2l-0.1-0.1c-2.5-2.5-3.7-4.2-3.7-4.9c0-0.4,0.2-0.6,0.5-0.9
				l0.5-0.2h-0.9c-0.5,0-0.8-0.1-1-0.4c-0.3-0.3-0.4-0.6-0.4-1c0-0.4,0.1-0.7,0.4-1c0.3-0.3,0.6-0.4,1-0.4h11.2
				c0.7,0,1.2,0.3,1.6,0.9c0.4,0.6,0.5,1.3,0.1,2.2c-0.9,2.2-2.5,4.2-4.5,6c1.6,0.8,3.7,1.4,6.3,1.7c0.5,0.1,0.9,0.3,1.2,0.6
				c0.3,0.3,0.4,0.7,0.3,1.1c-0.1,0.4-0.2,0.7-0.6,1c-0.3,0.3-0.7,0.4-1.2,0.3c-3.2-0.3-6-1.3-8.5-3
				C516.6,209.2,514.2,210.3,511.9,210.9z M516.4,190.9v0.9c-0.1,1.8-1.2,3.3-3.4,4.5c-0.4,0.2-0.8,0.3-1.2,0.1
				c-0.4-0.1-0.6-0.4-0.8-0.8c-0.4-0.9-0.1-1.5,0.9-1.9c1.3-0.7,1.9-1.7,1.9-2.9v-1c0-0.7,0.2-1.2,0.6-1.7c0.4-0.5,1-0.7,1.8-0.7
				h4.7c0.3,0,0.5,0,0.8,0.1l-0.9-0.5c-2.4-1.6-4.7-3.5-6.7-5.5c-0.4-0.3-0.5-0.7-0.5-1.1c0-0.4,0.1-0.7,0.4-1
				c0.3-0.3,0.6-0.4,1-0.5c0.4,0,0.8,0.2,1.2,0.6l1.8,1.9c1.1-1,1.9-1.7,2.6-2.5c0.3-0.4,0.6-0.5,1-0.6c0.3,0,0.6,0.1,1,0.3
				c0.3,0.3,0.5,0.6,0.5,1c0,0.6-0.9,1.8-2.9,3.6l1.6,1.2l2.4-2.5c0.2-0.4,0.6-0.6,1-0.6c0.4-0.1,0.7,0,1,0.2
				c0.3,0.3,0.5,0.5,0.5,0.9c0,0.7-0.7,1.8-2.4,3.4c1.4,0.7,3,1.4,4.8,2.1c0.5,0.2,0.8,0.5,1,0.9c0.1,0.4,0.1,0.7,0,1.2
				c-0.2,0.4-0.5,0.6-0.8,0.8c-0.6,0.3-2.8-0.5-6.4-2.5c0.4,0.5,0.6,1,0.7,1.7v2.7c0,0.2,0.1,0.5,0.2,0.6c0.2,0.1,0.4,0.2,0.6,0.2
				h0.3c0.3,0,0.5-0.1,0.7-0.3c0.2-0.2,0.3-0.4,0.3-0.7v0c0-0.5,0.1-0.8,0.4-1c0.3-0.2,0.5-0.3,0.9-0.3c0.4,0,0.7,0.1,0.9,0.4
				c0.3,0.2,0.4,0.5,0.4,1v0.3c0,1.2-0.6,2.2-1.5,2.8c-0.5,0.2-1,0.4-1.6,0.4h-1.5c-0.5,0-1-0.1-1.3-0.4c-0.9-0.6-1.4-1.4-1.3-2.3
				v-2.4c0-0.3-0.1-0.5-0.3-0.7c-0.2-0.2-0.4-0.3-0.7-0.3h-2.4C516.7,190,516.4,190.2,516.4,190.9z M519.3,204.5
				c1.7-1.3,2.9-2.7,3.7-4.2v-0.4l-0.5-0.1h-7.6c0.3,0.1,0.6,0.4,0.9,0.7c0.9,1.3,1.8,2.3,2.6,3.1L519.3,204.5z"/>
			<path class="st0" d="M566.8,185c0.2-0.1,0.4-0.1,0.7,0c0.2,0.1,0.4,0.2,0.5,0.4c0.1,0.2,0.2,0.5,0.1,0.8l-4.9,17.3
				c-0.1,0.3-0.2,0.5-0.4,0.7c-0.2,0.1-0.5,0.1-0.8,0c-0.2-0.1-0.4-0.3-0.5-0.5c-0.1-0.2-0.1-0.4,0-0.7l4.9-17.3
				C566.4,185.3,566.6,185.1,566.8,185z"/>
			<path class="st0" d="M602.3,199c0-0.3-0.1-0.5-0.2-0.7c-0.2-0.2-0.5-0.3-0.7-0.3h-2.3c-0.5,0-1-0.1-1.2-0.4
				c-0.3-0.3-0.4-0.7-0.4-1.1c0-0.4,0.2-0.8,0.5-1.1c0.3-0.3,0.7-0.4,1.2-0.4h3.8c0.8,0,1.4,0.2,1.9,0.8c0.5,0.4,0.6,1.1,0.7,1.8v6
				c0,0.6,0.4,1.2,1.2,1.9l1.4,1c-0.4-0.2-0.6-0.6-0.6-1c0-0.4,0-0.7,0.2-1c0.3-0.3,0.6-0.5,1.1-0.6c1.6-0.3,3.3-1,4.9-2
				c0.4-0.2,0.7-0.4,1.1-0.3c0.4,0,0.7,0.3,0.9,0.6c0.2,0.3,0.3,0.6,0.2,1c-0.1,0.4-0.3,0.7-0.6,1l-0.1,0.1c-3,1.8-5.3,2.6-6.9,2.4
				c1.5,0.7,4.2,1.1,8,1.1l8.5-0.2c3.2-0.1,5.1,0,5.5,0.3c0.3,0.3,0.5,0.6,0.6,1.1c0,0.5-0.1,0.9-0.4,1.2c-0.3,0.4-0.8,0.6-1.4,0.6
				h-14.4c-5.1,0-8.6-1.1-10.4-3.1c-0.5,0.6-1.1,1.4-2,2c-2,1.4-3.4,1.8-4.3,1.4c-0.3-0.2-0.6-0.5-0.7-0.9c-0.2-1,0.1-1.7,1.1-2
				l2.1-1c1-0.7,1.7-1.8,1.9-3.3V199z M597.4,187.7c-0.1-0.4,0-0.7,0.2-1.1c0.2-0.4,0.5-0.7,0.9-0.7c0.4-0.1,0.8,0,1.3,0.2
				c1.3,0.7,2.8,1.8,4.3,3.2c0.4,0.4,0.6,0.7,0.6,1.1c0,0.4-0.1,0.8-0.4,1.2c-0.3,0.3-0.7,0.5-1.1,0.5c-0.4,0-0.8-0.2-1.2-0.5
				c-1.5-1.3-2.7-2.2-3.8-2.8C597.8,188.4,597.5,188.1,597.4,187.7z M597.8,180.7c-0.1-0.4-0.1-0.8,0.1-1.2c0.2-0.4,0.5-0.7,0.9-0.8
				c0.4-0.1,0.8-0.1,1.2,0.2c1.4,0.7,2.8,1.7,4.5,3c0.4,0.4,0.6,0.7,0.6,1.1c0,0.4,0,0.8-0.3,1.2c-0.3,0.3-0.7,0.5-1.1,0.5
				c-0.4,0-0.8-0.1-1.2-0.5c-1.5-1.2-2.8-2.1-3.8-2.7C598.3,181.4,598,181.1,597.8,180.7z M612.7,196.2h-4.2c-0.4,0-0.7-0.1-1-0.4
				c-0.3-0.2-0.4-0.6-0.4-1c0-0.4,0.1-0.7,0.4-1c0.2-0.3,0.6-0.4,1-0.4h4.2v-1.6c-2.9,0-4.6-0.3-5.2-0.8c-0.4-0.5-0.6-1.1-0.6-1.9
				v-8c0-0.5,0.2-1,0.6-1.4c0.4-0.4,0.9-0.5,1.4-0.5h6.1c0.7,0,1.3,0.2,1.7,0.7c0.4,0.4,0.6,1,0.6,1.6v2.2c0,0.6-0.2,1.1-0.6,1.6
				c-0.5,0.5-1,0.7-1.7,0.7h-5.6v2.3c0,0.3,0.1,0.5,0.4,0.6c0.3,0.1,0.6,0.2,1.1,0.3h3.2c0.8,0,1.2-0.4,1.2-1.1
				c0-0.4,0.1-0.7,0.3-0.9c0.2-0.2,0.5-0.4,0.9-0.4c0.4,0,0.7,0.1,1,0.4c0.2,0.2,0.3,0.5,0.4,0.9c0.1,1.5-0.1,2.5-0.7,3.1
				c-0.3,0.3-0.9,0.5-1.6,0.6v1.7h5v-2.1c-0.4-0.1-0.6-0.4-0.9-0.6c-0.4-0.5-0.6-1.1-0.6-1.8v-7.8c0-0.5,0.2-1,0.6-1.4
				c0.4-0.4,0.9-0.5,1.4-0.5h6c0.7,0,1.3,0.2,1.7,0.7c0.4,0.4,0.6,1,0.6,1.6v2.2c0,0.6-0.2,1.1-0.6,1.6c-0.5,0.5-1,0.7-1.7,0.7h-5.4
				v2.1c0,0.3,0.1,0.5,0.3,0.6l1.1,0.2h3c0.9,0,1.3-0.4,1.3-1.2c0-0.4,0.1-0.7,0.3-1c0.1-0.2,0.5-0.4,0.9-0.4c0.4,0,0.7,0.1,1,0.4
				c0.2,0.3,0.3,0.5,0.4,0.9c0.2,1.6-0.1,2.7-0.7,3.3c-0.6,0.5-2.5,0.7-5.7,0.7v1.8h4.6c0.4,0,0.7,0.1,1,0.4c0.2,0.2,0.4,0.6,0.4,1
				s-0.1,0.7-0.4,1c-0.3,0.3-0.6,0.4-1,0.4h-4.6v2.3h5.8c0.4,0,0.7,0.1,1,0.4c0.2,0.3,0.4,0.6,0.4,1c0,0.4-0.1,0.7-0.4,1
				c-0.3,0.3-0.6,0.4-1,0.4H608c-0.5,0-0.8-0.1-1-0.4c-0.2-0.2-0.4-0.6-0.4-1c0-0.4,0.1-0.7,0.4-1c0.3-0.3,0.6-0.4,1-0.4h4.7V196.2z
				 M609.3,183.6h4.8l0.4-0.2l0.2-0.5v-0.5c0-0.3-0.1-0.5-0.3-0.6c-0.2-0.2-0.4-0.3-0.6-0.2h-3.8c-0.3,0-0.4,0.1-0.5,0.2
				c-0.2,0.2-0.3,0.4-0.2,0.6V183.6z M620.5,198.5v-2.3h-5v2.3H620.5z M621.1,203.7c-0.2-0.3-0.2-0.7-0.1-1.2
				c0.1-0.4,0.4-0.7,0.7-0.9c0.4-0.2,0.8-0.2,1.3-0.1c1.7,0.5,3.6,1.4,5.8,2.6c0.4,0.2,0.7,0.6,0.8,1c0.1,0.4,0.1,0.8-0.1,1.2
				c-0.3,0.4-0.6,0.6-0.9,0.7c-0.4,0.1-0.9,0-1.3-0.3c-2.1-1.1-3.8-1.8-5.1-2.3C621.7,204.4,621.4,204.1,621.1,203.7z M621.4,183.6
				h4.6l0.4-0.2l0.3-0.5v-0.5c0-0.3-0.1-0.5-0.3-0.6c-0.2-0.2-0.4-0.3-0.6-0.2h-3.7c-0.3,0-0.4,0.1-0.6,0.2
				c-0.1,0.2-0.2,0.4-0.2,0.6V183.6z"/>
			<path class="st0" d="M668,187.7h-2.5c-0.6,4.2-1.4,6.6-2.4,7c-0.3,0.1-0.7,0.1-1.1,0c-0.4-0.1-0.6-0.4-0.8-0.8
				c-0.1-0.4-0.1-0.8,0.1-1.2c1.2-3.1,1.8-6.9,1.8-11.3v-1.1c0-0.5,0.1-0.9,0.4-1.2c0.3-0.3,0.6-0.4,1-0.4c0.4,0,0.7,0.1,1,0.4
				c0.3,0.3,0.5,0.7,0.5,1.2v1.1l-0.2,3.3h2.1v-5.6c0-0.5,0.1-0.8,0.4-1.1c0.3-0.3,0.7-0.4,1.1-0.4s0.8,0.1,1.1,0.4
				c0.3,0.3,0.5,0.6,0.5,1.1v5.6h1.8c0.5,0,0.8,0.1,1.1,0.4c0.3,0.3,0.4,0.7,0.4,1.1c0,0.4-0.1,0.8-0.4,1.1
				c-0.3,0.3-0.6,0.4-1.1,0.4H671v8.5c1.5-0.9,2.5-1.4,2.8-1.2c0.4,0.1,0.7,0.3,0.9,0.7c0.2,0.4,0.3,0.7,0.3,1.1
				c-0.1,0.6-1.5,1.6-4,2.7v10.3c0,0.5-0.1,0.9-0.4,1.2c-0.3,0.2-0.6,0.4-1.1,0.4c-0.4,0-0.7-0.1-1.1-0.4c-0.3-0.3-0.4-0.7-0.4-1.2
				v-9l-4.3,1.6c-0.5,0.1-0.8,0.1-1.2-0.1c-0.4-0.2-0.7-0.5-0.8-0.9c-0.1-0.5-0.1-0.9,0-1.2c0.2-0.4,0.5-0.6,1-0.8
				c1.7-0.5,3.5-1.1,5.3-1.8V187.7z M683.6,185.2c0,4.4-1.5,8.7-4.5,12.9c-1.4,1.8-2.8,3.6-4.5,5.3c-0.4,0.3-0.8,0.4-1.2,0.4
				c-0.4,0-0.7-0.2-1-0.5l-0.3-0.6c-0.1-0.5,0.6-1.6,2.2-3.2c4.3-4.8,6.5-9.6,6.5-14.3h-2.1l-0.4,1c-1.7,4.1-3.2,6.3-4.4,6.4
				c-0.3,0-0.6-0.1-1-0.4c-0.4-0.3-0.6-0.6-0.6-1c0-0.4,0.1-0.7,0.4-1.1c2.4-2.9,3.9-6.6,4.4-11.1c0.1-0.5,0.2-0.8,0.6-1
				c0.3-0.2,0.7-0.3,1.1-0.3c0.4,0.1,0.8,0.3,1,0.6c0.4,0.4,0.3,1.7-0.2,3.9h11.4c0.6,0,1.2,0.1,1.7,0.3c0.5,0.3,0.8,0.6,1,1.1
				c0.2,0.6,0.3,1.3,0.3,2c0,6.6-0.2,11.9-0.6,15.8c-0.3,2.6-0.8,4.7-1.5,6c-0.5,1.1-1.4,2-2.6,2.7c-0.7,0.4-1.7,0.6-3,0.6
				c-1.3,0-2.6-0.2-3.8-0.7c-0.5-0.2-0.9-0.4-1-0.7c-0.2-0.4-0.2-0.8-0.1-1.2c0.3-0.9,1-1.2,2-1c2.2,0.6,3.8,0.7,4.5,0.3
				c0.8-0.5,1.4-1.4,1.8-2.6c0.6-1.6,1-6.8,1.1-15.6c0-2.1-0.1-3.3-0.3-3.5c-0.2-0.2-0.5-0.4-0.9-0.4h-0.9v0.7
				c-0.2,9.6-3.3,17-9.3,22.3c-1.6,1.2-2.7,1.8-3.3,1.6c-0.4-0.1-0.7-0.3-1-0.7c-0.5-0.9-0.2-1.7,0.7-2.3c6.5-4.2,9.8-11.2,9.8-20.9
				v-0.7H683.6z"/>
		</g>
		<g>
			<path class="st1" d="M392.5,46.8V45c0-2.8-2.3-5-5-5h-43c-6.2,0-11.2,5-11.2,11.2v102.1c0,2.8,2.3,5,5,5h1.8c2.8,0,5-2.3,5-5
				v-33.9l16.1,16.1l-10.9,10.9c-2,2-2,5.2,0,7.1l1.3,1.3c2,2,5.2,2,7.1,0l10.9-10.9l10.9,10.9c2,2,5.2,2,7.1,0l1.3-1.3
				c2-2,2-5.2,0-7.1L378,135.5l11.2-11.2c2.1-2.1,3.3-4.9,3.3-7.9V86.7c0-6.2-5-11.2-11.2-11.2h-36.2V57.4c0-3.1,2.5-5.6,5.6-5.6
				h36.7C390.2,51.8,392.5,49.6,392.5,46.8z M380.6,92.9V113c0,2-0.8,3.9-2.2,5.3l-8.8,8.8l-24.5-24.5V87.3H375
				C378.1,87.3,380.6,89.9,380.6,92.9z M269.1,28.2h-1.8c-2.8,0-5,2.3-5,5v7.5c0,6.2,5,11.2,11.2,11.2h43c2.8,0,5-2.3,5-5V45
				c0-2.8-2.3-5-5-5h-36.7c-3.1,0-5.6-2.5-5.6-5.6v-1.2C274.1,30.4,271.9,28.2,269.1,28.2z M273.5,158.4h36.2c2.2,0,4.3-0.9,5.9-2.5
				v0c3.3-3.3,3.3-8.6,0-11.8L301,129.6c-2-2-5.2-2-7.1,0l-1.3,1.3c-2,2-2,5.2,0,7.1l8.6,8.6h-21.5c-3.1,0-5.6-2.5-5.6-5.6v-18.1
				h36.2c6.2,0,11.2-5,11.2-11.2V74.9c0-6.2-5-11.2-11.2-11.2h-36.8c-6.2,0-11.2,5-11.2,11.2v72.3
				C262.3,153.3,267.3,158.4,273.5,158.4z M279.7,75.5H304c3.1,0,5.6,2.5,5.6,5.6v6.2h-35.5v-6.2C274.1,78,276.6,75.5,279.7,75.5z
				 M274.1,99.2h35.5v6.2c0,3.1-2.5,5.6-5.6,5.6h-29.9V99.2z"/>
			<path class="st1" d="M605.5,63.7h-23.7V45.1c0-2.8-2.3-5-5-5H575c-2.8,0-5,2.3-5,5v69.7c0,3,1.2,5.8,3.3,7.9l12,12l-11.7,11.7
				c-2,2-2,5.2,0,7.1l1.3,1.3c2,2,5.2,2,7.1,0l11.7-11.7l11.7,11.7c2,2,5.2,2,7.1,0l1.3-1.3c2-2,2-5.2,0-7.1L602,134.7l12-12
				c2.1-2.1,3.3-4.9,3.3-7.9V56.9c0-2.8-2.3-5-5-5h-1.8c-2.8,0-5,2.3-5,5V63.7z M603.3,116.7l-9.7,9.7l-9.7-9.7
				c-1.4-1.4-2.2-3.3-2.2-5.3V75.6h23.7v35.8C605.5,113.4,604.7,115.3,603.3,116.7z M671.5,122.9h-13.6c-2.8,0-5,2.3-5,5v1.8
				c0,2.8,2.3,5,5,5h13.6c2.8,0,5-2.3,5-5v-1.8C676.5,125.1,674.2,122.9,671.5,122.9z M634.2,134.7h1.8c2.8,0,5-2.3,5-5v-1.8
				c0-2.8-2.3-5-5-5h-1.8c-2.8,0-5,2.3-5,5v1.8C629.1,132.4,631.4,134.7,634.2,134.7z M700.2,35v-1.7c0-2.8-2.3-5-5-5h-54.8
				c-6.2,0-11.2,5-11.2,11.2v12.4h0v11.9h0v11.8h0v11.8h0v12.5c0,6.2,5,11.2,11.2,11.2h0.7v0h23.7v0h11.8l6.2,0
				c3.1,0,5.6,2.5,5.6,5.6v24.3c0,3.1-2.5,5.6-5.6,5.6h-13c-2.8,0-5,2.3-5,5v1.8c0,2.8,2.3,5,5,5H689c6.2,0,11.2-5,11.2-11.2v-36.8
				c0-6.2-5-11.2-11.2-11.2h-12.5V87.4h18.6c2.8,0,5-2.3,5-5v-1.8c0-2.8-2.3-5-5-5h-18.6V63.7h18.6c2.8,0,5-2.3,5-5v-1.8
				c0-2.8-2.3-5-5-5h-18.6V40h18.6C697.9,40,700.2,37.8,700.2,35z M664.6,99.2h-18.1c-3.1,0-5.6-2.5-5.6-5.6v-6.2h23.7V99.2z
				 M664.6,75.5H641V63.7h23.7V75.5z M664.6,51.9H641v-6.2c0-3.1,2.5-5.6,5.6-5.6h18.1V51.9z"/>
			<g>
				<circle class="st1" cx="457.5" cy="152.4" r="5.9"/>
				<path class="st1" d="M535.1,28.2H427.3c-6.2,0-11.2,5-11.2,11.2v107.8c0,6.2,5,11.2,11.2,11.2h6.6c3.3,0,5.9-2.6,5.9-5.9
					c0-3.3-2.6-5.9-5.9-5.9h-0.3c-3.1,0-5.6-2.5-5.6-5.6V45.6c0-3.1,2.5-5.6,5.6-5.6l41.7,0v11.8H451c-6.2,0-11.2,5-11.2,11.2v36.8
					c0,6.2,5,11.2,11.2,11.2l60.5,0c6.2,0,11.2-5,11.2-11.2l0-36.8c0-6.2-5-11.2-11.2-11.2h-24.3V40.1l41.7,0c3.1,0,5.6,2.5,5.6,5.6
					v95.3c0,3.1-2.5,5.6-5.6,5.6h-0.3c-3.3,0-5.9,2.6-5.9,5.9c0,3.3,2.6,5.9,5.9,5.9h6.6c6.2,0,11.2-5,11.2-11.2V39.4
					C546.3,33.2,541.3,28.2,535.1,28.2z M475.3,99.2h-18.1c-3.1,0-5.6-2.5-5.6-5.6v-6.2h23.7V99.2z M475.3,75.5h-23.7v-6.2
					c0-3.1,2.5-5.6,5.6-5.6h18.1V75.5z M510.8,93.6c0,3.1-2.5,5.6-5.6,5.6h-18.1V87.3h23.7V93.6z M505.2,63.7c3.1,0,5.6,2.5,5.6,5.6
					v6.2h-23.7V63.7H505.2z"/>
				<path class="st1" d="M522.6,128.8c0-3.3-2.6-5.9-5.9-5.9h-70.9c-3.3,0-5.9,2.6-5.9,5.9v0c0,3.3,2.6,5.9,5.9,5.9H499v6.2
					c0,3.1-2.5,5.6-5.6,5.6h-12.2c-3.3,0-5.9,2.6-5.9,5.9c0,3.3,2.6,5.9,5.9,5.9h18.4c6.2,0,11.2-5,11.2-11.2v-12.5h5.9
					C520,134.7,522.6,132,522.6,128.8L522.6,128.8z"/>
			</g>
		</g>
	</g>
	<g>
		<g>
			<path class="st2" d="M220.6,115.2c-4.3-11.2-10.5-23.2-16.8-31.5s-8.8-12.4-15.8-19.1c-20.2-19-46-24.3-72.1-24.7
				c-26.2,0.4-51.9,5.7-72.1,24.7c-7,6.6-9.4,10.8-15.8,19.1S15.3,104,11,115.2c-4.2,10.9-7.9,19.6-6.7,38.1
				c2,29.4,23.7,42.6,33.3,46.6c10.3,4.2,39.8,9.5,78.1,9.5s67.8-5.3,78.1-9.5c9.6-4,31.3-17.2,33.3-46.6
				C228.5,134.8,224.8,126.1,220.6,115.2z"/>
			<path class="st3" d="M115.8,186.3c-42.8,0-52.6,3.2-52.6,5.5c0,2.3,22.1,5.3,52.6,5.5c30.5-0.2,52.6-3.2,52.6-5.5
				C168.4,189.5,158.6,186.3,115.8,186.3z"/>
			<path class="st4" d="M46.4,199.8C54,171.9,18,156.4,8.9,167.4c0,0-0.8,10.7,11.7,21.4C33.1,199.5,46.4,199.8,46.4,199.8z"/>
			<path class="st4" d="M185.2,199.8c-7.6-27.9,28.4-43.4,37.5-32.4c0,0,0.8,10.7-11.7,21.4C198.5,199.5,185.2,199.8,185.2,199.8z"
				/>
			<path class="st0" d="M115.8,213.5c-36.7,0-67.8-5-79.7-9.9c-5.6-2.3-33.5-15.5-35.9-50.1C-1,134.9,2.6,125.7,6.7,115l0.5-1.3
				c4.9-12.6,11.2-24.5,17.4-32.5c1.6-2,2.9-3.8,4.1-5.5c3.8-5.1,6.6-8.9,12.1-14.1c18.2-17.1,42-25.3,74.9-25.8
				c33,0.5,56.8,8.7,75,25.8c5.5,5.2,8.3,8.9,12.1,14.1c1.2,1.6,2.5,3.4,4.1,5.5c6.2,8,12.6,19.9,17.4,32.5l0,0l0.5,1.3
				c4.1,10.7,7.7,19.9,6.4,38.5c-2.4,34.6-30.3,47.8-35.9,50.1C183.6,208.6,152.5,213.5,115.8,213.5z M115.7,44
				c-30.6,0.5-52.7,8-69.2,23.6c-5,4.7-7.5,8-11.2,13c-1.2,1.7-2.6,3.5-4.2,5.6c-5.7,7.3-11.7,18.7-16.3,30.5l-0.5,1.4
				c-3.9,10.2-7,18.2-5.9,35c2,29.7,26,41.1,30.8,43.1c8.6,3.6,37,9.2,76.5,9.2s67.9-5.7,76.5-9.2c4.8-2,28.8-13.4,30.8-43.1
				c1.2-16.8-2-24.8-5.9-35l-0.5-1.4c-4.5-11.8-10.6-23.1-16.3-30.5c-1.6-2.1-3-3.9-4.2-5.6c-3.7-5-6.1-8.3-11.1-13
				C168.5,52,146.5,44.5,115.7,44z"/>
			<path class="st0" d="M46.4,203.9c-0.4,0-0.7,0-1.1-0.1c-2.2-0.6-3.5-2.9-2.9-5c3.7-13.5-4.5-23.2-13.4-27.8
				c-6.9-3.6-14.4-4-16.9-0.9c-1.4,1.8-4,2-5.8,0.6c-1.8-1.4-2-4-0.6-5.8c5.2-6.3,16.3-6.7,27.1-1.2c11.2,5.8,22.5,19,17.5,37.3
				C49.9,202.7,48.2,203.9,46.4,203.9z"/>
			<path class="st0" d="M185.2,203.9c-1.8,0-3.5-1.2-4-3c-5-18.2,6.3-31.5,17.5-37.3c10.8-5.6,21.9-5.1,27.1,1.2
				c1.4,1.7,1.2,4.3-0.6,5.8c-1.7,1.4-4.3,1.2-5.8-0.6c-2.6-3.1-10-2.7-16.9,0.9c-8.9,4.6-17.1,14.3-13.4,27.8
				c0.6,2.2-0.7,4.4-2.9,5C185.9,203.9,185.5,203.9,185.2,203.9z"/>
		</g>
		<g>
			<path class="st0" d="M83.3,108.6c0.2,0,0.4,0.1,0.5,0.1c2.7,0.7,8.9,3.8,11.6,2.8c4.5-1.8-2.5-6.4-5-7
				c-5.7-1.3-11.4-2.9-17.2-3.8c-1.6-0.3-5.4-1.5-6.1,0.8c-0.5,1.8,2.9,3.5,4.1,3.8C75.3,106.4,79.3,107.5,83.3,108.6z"/>
			<path class="st0" d="M162.4,97.5c-1.9-0.6-4.4,0.6-6.2,1.1c-5.9,1.9-11.7,4.2-17.6,6.1c-1.5,0.5-3.2,1.3-3.5,2.8
				c-0.2,1.6,1.5,3,3.2,3c2.5,0,5.9-1.8,8.5-2.4c4.7-1.1,9.4-2.5,14.1-3.7c2.5-0.7,4.9-3.2,3.1-5.8
				C163.5,98.1,162.9,97.7,162.4,97.5z"/>
			<path class="st0" d="M118.6,128.3c-0.9-1.8-1.3-4.5-3.6-4.7c-2.3,0.1-2.7,2.9-3.6,4.7c-2.4,0.3-6.2,2.8-3.6,4.7
				c2,1.5,4.3,1.8,7.2,1.8s5.2-0.3,7.2-1.8C124.8,131.1,121,128.6,118.6,128.3z"/>
			<path class="st0" d="M91,126.3c-0.5-1.2-1.3-2.3-2.3-3.2c-2.5-2.1-6.2-2.9-9.3-1.6c-3.1,1.3-5.2,4.6-4.9,7.8
				c0.9,9.7,18.2,7.6,16.9-1.7C91.3,127.2,91.1,126.7,91,126.3z"/>
			<path class="st0" d="M147.3,119.6c-8.9,0.6-10.1,11.1-2.3,14.4c5.6,0.9,12.5-1.3,10.7-8.5C154.8,121.9,151,119.3,147.3,119.6z"/>
			<path class="st0" d="M131.9,140.3c-2.8,0.9-5.6,1.9-8.3,3.3c-2,1-5.5,4.4-7.5,4.5c-0.9,0.1-3.3-2.3-4.1-2.8
				c-1.4-0.9-2.8-1.7-4.3-2.4c-3.1-1.5-6.4-2.7-9.7-3.7c-2.8-0.8-4,3.6-1.2,4.4c4.2,1.3,8.3,2.9,12.1,5.2c2.1,1.3,4.7,4.2,7.3,4.2
				c2.2,0.1,4.1-2.1,5.8-3.1c3.5-2.2,7.2-3.9,11.2-5.1C135.9,143.8,134.7,139.4,131.9,140.3z"/>
		</g>
		<g>
			<path class="st0" d="M204.8,71.1c2.9,0.6,9.8-3.7,7.8-13.7c-2.1-10.4-7.9-11.6-13.7-10.4c5.1-7.8,4.3-16.7-5.3-24.8
				c-9.6-8.1-22.4-4.3-25-1.2c0-5.9-3.4-10.8-8.5-13.7c-6.3-3.5-13.8-3.8-20,0.1c-1.9,1.2-3.6,2.8-4.9,4.6
				c-2-8.5-11.1-12.2-19.5-12.1c-8.3-0.1-17.4,3.5-19.5,12.1c-1.3-1.8-2.9-3.4-4.9-4.6c-6.2-3.9-13.7-3.6-20-0.1
				c-5.1,2.8-8.5,7.8-8.5,13.7c-2.5-3.1-15.3-6.8-25,1.2s-10.5,17-5.3,24.8c-5.8-1.3-11.6,0-13.7,10.4c-2,10,4.9,14.3,7.8,13.7
				C16.4,77.7,14.6,91.2,16.6,97c6.1,16.8,30.7,4.7,31.7-5.4c0.7,8,10.9,7.8,19.3,3.6c5.7-2.9,11.4-8.4,11.5-13.4
				c0.9,4,6.7,14.6,36.6,14.6s35.7-10.6,36.6-14.6c0.2,5,5.8,10.6,11.5,13.4c8.4,4.2,18.7,4.4,19.3-3.6c1,10.1,25.6,22.1,31.7,5.4
				C217,91.2,215.2,77.7,204.8,71.1z"/>
			<path class="st5" d="M65.7,53.9c-0.8,0-1.6-0.4-2.2-1.1c-0.9-1.2-0.7-2.9,0.5-3.8c0.7-0.6,18.6-14,51.7-14
				c33.1,0,51,13.4,51.7,14c1.2,0.9,1.4,2.6,0.5,3.8c-0.9,1.2-2.6,1.4-3.8,0.5c-0.2-0.1-17.3-12.9-48.4-12.9
				c-31.3,0-48.2,12.7-48.4,12.9C66.9,53.7,66.3,53.9,65.7,53.9z"/>
		</g>
	</g>
</g>
</svg>
