<?xml version="1.0" encoding="utf-8"?>
<!-- Generator: Adobe Illustrator 23.0.4, SVG Export Plug-In . SVG Version: 6.00 Build 0)  -->
<svg version="1.1" id="圖層_1" xmlns="http://www.w3.org/2000/svg" xmlns:xlink="http://www.w3.org/1999/xlink" x="0px" y="0px"
	 viewBox="0 0 320.4 433.7" style="enable-background:new 0 0 320.4 433.7;" xml:space="preserve">
<style type="text/css">
	.st0{fill:#371D1D;}
	.st1{fill:#391E1E;}
	.st2{fill:#FBEBE2;}
	.st3{opacity:0.5;fill:#F2D2C2;}
	.st4{fill:#D04E45;}
	.st5{fill:#FFFFFF;}
</style>
<g>
	<g>
		<g>
			<path class="st0" d="M60.3,412.3c-0.3,0-0.6-0.1-0.9-0.4c-0.3-0.3-0.4-0.6-0.4-0.9v-12.4c0-0.3,0.1-0.6,0.4-0.9
				c0.3-0.2,0.5-0.4,0.9-0.4h12.1c0.4,0,0.7,0.1,0.9,0.4c0.2,0.2,0.3,0.5,0.3,0.9v12.4c0,0.3-0.1,0.6-0.4,0.9
				c-0.2,0.2-0.5,0.4-0.9,0.4H60.3z M63.5,408.6h-2c-0.2,0-0.3-0.1-0.4-0.2c-0.1-0.1-0.2-0.2-0.2-0.4c0-0.2,0.1-0.3,0.2-0.4
				c0.1-0.1,0.2-0.2,0.4-0.2h7.3v-0.8l-7,0.3c-0.2,0-0.3,0-0.5-0.1c-0.1-0.1-0.2-0.3-0.2-0.4c0-0.2,0.1-0.3,0.1-0.5
				c0.1-0.1,0.3-0.2,0.5-0.2l4-0.1v-0.8h-3.4c-0.2,0-0.4-0.1-0.5-0.3c-0.2-0.2-0.2-0.4-0.2-0.6v-2.3c0-0.2,0.1-0.4,0.2-0.5
				c0.2-0.2,0.3-0.2,0.5-0.2h3.4v-0.6h-4.2c-0.2,0-0.3-0.1-0.4-0.2c-0.1-0.1-0.2-0.2-0.2-0.4c0-0.2,0.1-0.3,0.2-0.4
				c0.1-0.1,0.2-0.1,0.4-0.1h4.2v-0.6h-4.8c-0.1,0-0.2,0-0.3,0.2c-0.1,0.1-0.2,0.2-0.2,0.4v11.6c0,0.1,0.1,0.3,0.1,0.3
				c0.1,0.1,0.2,0.2,0.4,0.2h10.9c0.2,0,0.3-0.1,0.3-0.2c0.1-0.1,0.1-0.2,0.1-0.3v-11.6c0-0.2-0.1-0.3-0.1-0.4
				c-0.1-0.1-0.2-0.1-0.3-0.1H67v0.6h4c0.2,0,0.3,0.1,0.4,0.1c0.1,0.1,0.2,0.2,0.2,0.4c0,0.2-0.1,0.3-0.2,0.4
				c-0.1,0.1-0.2,0.2-0.4,0.2h-4v0.6h3.1c0.3,0,0.5,0.1,0.7,0.2c0.2,0.1,0.2,0.3,0.2,0.5v2.3c0,0.2-0.1,0.4-0.3,0.7h0
				c0.9,1,1.3,1.7,1.3,2.1c-0.1,0.2-0.2,0.3-0.3,0.4c-0.2,0.1-0.3,0.1-0.4,0.1c-0.2-0.1-0.3-0.2-0.4-0.3l-0.1-0.2h-0.7v0v0.8h1.5
				c0.2,0,0.3,0.1,0.4,0.2c0.1,0.1,0.1,0.2,0.1,0.4c0,0.2,0,0.3-0.1,0.4c-0.1,0.1-0.2,0.2-0.4,0.2h-1.5v1c0,0.6-0.3,1-0.7,1.3
				c-0.5,0.3-1.3,0.3-2.1,0c-0.2-0.1-0.4-0.2-0.5-0.3c-0.1-0.1-0.1-0.3-0.1-0.5c0.1-0.5,0.4-0.6,0.9-0.5c0.5,0.1,0.9,0.1,1,0.1
				c0.1-0.1,0.2-0.2,0.2-0.4v-0.7h-4.6l0,0c0.8,0.7,1.3,1.2,1.2,1.5c0,0.2-0.1,0.3-0.2,0.4c-0.1,0.1-0.3,0.1-0.4,0.1
				c-0.2,0-0.3-0.1-0.4-0.3c-0.3-0.4-0.6-0.7-0.8-0.9c-0.2-0.1-0.3-0.3-0.3-0.4c0-0.2,0-0.3,0.2-0.4L63.5,408.6z M65.7,401.7h-2.4
				c-0.2,0-0.3,0-0.3,0.1c-0.1,0.1-0.1,0.2-0.1,0.3v0.2h2.9V401.7z M65.7,403.3h-2.9v0.2c0,0.1,0,0.2,0.1,0.3
				c0.1,0.1,0.2,0.1,0.3,0.1h2.4V403.3z M67,402.3h2.7v-0.2c0-0.1,0-0.2-0.1-0.3c-0.1-0.1-0.2-0.1-0.3-0.1H67V402.3z M67,403.9h2.3
				c0.2,0,0.3,0,0.3-0.1l0.1-0.3v-0.2H67V403.9z M69.7,404.8H67v0.7l2.9-0.1C69.8,405.1,69.7,404.9,69.7,404.8L69.7,404.8z"/>
			<path class="st0" d="M90.2,409c0.2-0.1,0.3-0.1,0.5-0.1c0.2,0.1,0.3,0.2,0.4,0.3c0.1,0.2,0.1,0.3,0,0.6c-0.2,0.7-0.5,1.5-1,2.5
				c-0.1,0.2-0.3,0.3-0.4,0.4c-0.2,0-0.3,0-0.5-0.1c-0.2-0.1-0.3-0.2-0.3-0.4c-0.1-0.2,0-0.3,0.1-0.6c0.4-0.9,0.7-1.6,0.9-2.2
				C89.9,409.3,90,409.1,90.2,409z M90.3,408.5c-0.3,0-0.5-0.1-0.6-0.3c-0.2-0.2-0.3-0.5-0.3-0.8v-9.1c0-0.3,0.1-0.5,0.3-0.6
				c0.2-0.2,0.4-0.3,0.6-0.3h2.1c0.3,0,0.6,0.1,0.8,0.3c0.2,0.2,0.3,0.4,0.3,0.6v9.1c0,0.3-0.1,0.5-0.3,0.7
				c-0.2,0.2-0.5,0.3-0.7,0.3H90.3z M92.2,400.7v-1.4c0-0.2,0-0.3-0.1-0.4c-0.1-0.1-0.2-0.2-0.4-0.2h-0.5c-0.2,0-0.3,0-0.4,0.1
				c-0.1,0.1-0.1,0.3-0.1,0.4v1.4H92.2z M92.2,403.9v-2h-1.5v2H92.2z M90.7,405.2v1.5c0,0.2,0.1,0.3,0.1,0.4
				c0.1,0.1,0.2,0.1,0.4,0.1h0.5c0.2,0,0.3-0.1,0.4-0.2c0.1-0.1,0.1-0.2,0.1-0.4v-1.5H90.7z M91.9,409.5c0-0.2,0.1-0.3,0.3-0.4
				c0.2-0.1,0.3-0.1,0.5-0.1c0.2,0.1,0.3,0.2,0.4,0.3c0.7,1.2,1,1.9,0.8,2.4c-0.1,0.2-0.2,0.3-0.4,0.3c-0.2,0.1-0.3,0.1-0.5,0
				c-0.2-0.1-0.3-0.2-0.3-0.4c-0.2-0.7-0.5-1.2-0.7-1.6C91.9,409.8,91.8,409.6,91.9,409.5z M96.1,412.1c0,0.2-0.1,0.4-0.2,0.5
				c-0.1,0.1-0.3,0.2-0.5,0.2c-0.2,0-0.3-0.1-0.5-0.2c-0.1-0.1-0.2-0.3-0.2-0.5v-1.7h-0.4c-0.2,0-0.3-0.1-0.4-0.2
				c-0.1-0.1-0.2-0.3-0.2-0.4c0-0.2,0.1-0.3,0.2-0.4c0.1-0.1,0.2-0.2,0.4-0.2h0.4v-3.6c0-0.3,0.1-0.6,0.3-0.8
				c0.2-0.2,0.5-0.4,0.8-0.3h2.8v-0.9h-4.3c-0.2,0-0.3,0-0.4-0.2c-0.1-0.1-0.2-0.3-0.2-0.4c0-0.2,0.1-0.3,0.2-0.4
				c0.1-0.1,0.2-0.2,0.4-0.2h2.3v-0.9h-1.5c-0.2,0-0.3,0-0.4-0.2c-0.1-0.1-0.2-0.3-0.2-0.4c0-0.2,0.1-0.3,0.2-0.4
				c0.1-0.1,0.3-0.2,0.4-0.2h1.5v-0.9h-2.1c-0.2,0-0.3-0.1-0.4-0.2c-0.1-0.1-0.2-0.3-0.2-0.4c0-0.2,0-0.3,0.2-0.4
				c0.1-0.1,0.3-0.2,0.4-0.2h2.1c0-0.6,0.1-1,0.2-1.1c0.1-0.1,0.3-0.2,0.5-0.2c0.2,0,0.3,0.1,0.5,0.2c0.1,0.1,0.2,0.5,0.2,1.1h2.9
				c0-0.6,0.1-1,0.2-1.1c0.1-0.1,0.3-0.2,0.5-0.2c0.2,0,0.3,0.1,0.5,0.2c0.1,0.1,0.2,0.5,0.2,1.1h1.8c0.2,0,0.3,0.1,0.4,0.2
				c0.1,0.1,0.2,0.2,0.2,0.4c0,0.2-0.1,0.3-0.2,0.4c-0.1,0.1-0.2,0.2-0.4,0.2h-1.8v0.9h1.5c0.2,0,0.3,0.1,0.4,0.2
				c0.1,0.1,0.2,0.3,0.2,0.4s-0.1,0.3-0.2,0.4c-0.1,0.1-0.2,0.2-0.4,0.2h-1.5v0.9h2c0.2,0,0.3,0.1,0.4,0.2c0.1,0.1,0.2,0.3,0.2,0.4
				s-0.1,0.3-0.2,0.4c-0.1,0.1-0.2,0.2-0.4,0.2H100v0.9h2.7c0.3,0,0.6,0.1,0.8,0.3c0.2,0.2,0.3,0.5,0.4,0.8v3.6h0.3
				c0.2,0,0.3,0.1,0.4,0.2c0.1,0.1,0.2,0.3,0.2,0.4c0,0.2-0.1,0.3-0.2,0.4c-0.1,0.1-0.2,0.2-0.4,0.2h-0.3v1.1c0,0.5-0.2,0.9-0.6,1.1
				c-0.2,0.1-0.5,0.2-0.8,0.2c-1.2,0-1.9-0.1-2.1-0.5c-0.1-0.2-0.1-0.3-0.1-0.5c0.1-0.4,0.4-0.6,0.9-0.5c0.6,0.1,0.9,0.2,1.1,0.1
				c0.2-0.1,0.3-0.3,0.3-0.5v-0.6h-6.4V412.1z M98.7,405.6h-2.1c-0.1,0-0.3,0.1-0.4,0.1c-0.1,0.1-0.1,0.2-0.1,0.3v0.7h2.6V405.6z
				 M98.7,409.2V408h-2.6v1.2H98.7z M100.8,399.4H98v0.9h2.9V399.4z M100.8,402.3v-0.9H98v0.9H100.8z M100,406.8h2.5V406
				c0-0.1,0-0.2-0.1-0.3c-0.1-0.1-0.2-0.1-0.3-0.1H100V406.8z M102.5,409.2V408H100v1.2H102.5z"/>
			<path class="st0" d="M122.4,400.3c0.1,0,0.2,0,0.3,0c0.1,0,0.2,0.1,0.2,0.2c0.1,0.1,0.1,0.2,0,0.4l-2.4,8.2
				c0,0.1-0.1,0.2-0.2,0.3c-0.1,0.1-0.2,0.1-0.4,0c-0.1-0.1-0.2-0.1-0.2-0.2c0-0.1,0-0.2,0-0.3l2.4-8.2
				C122.2,400.5,122.3,400.3,122.4,400.3z"/>
			<path class="st0" d="M139.2,401.7h-1.3c-0.2,0-0.4-0.1-0.5-0.2c-0.1-0.1-0.2-0.3-0.2-0.5c0-0.2,0.1-0.4,0.2-0.5
				c0.1-0.1,0.3-0.2,0.5-0.2h1.3v-2.6c0-0.3,0.1-0.4,0.2-0.6s0.3-0.2,0.5-0.2c0.2,0,0.4,0.1,0.5,0.2c0.2,0.1,0.2,0.3,0.2,0.6v2.6
				h1.2c0.2,0,0.4,0.1,0.5,0.2c0.1,0.1,0.2,0.3,0.2,0.5c0,0.2-0.1,0.4-0.2,0.5c-0.1,0.2-0.3,0.2-0.5,0.2h-1.2v3l0.8-0.5
				c0.2-0.1,0.4-0.2,0.6-0.1c0.2,0.1,0.3,0.2,0.4,0.3c0.1,0.2,0.2,0.4,0.1,0.6c-0.1,0.3-0.8,0.8-2,1.3v4.7c0,0.6-0.3,1.1-0.8,1.5
				c-0.3,0.2-0.7,0.2-1.4,0.2c-0.7-0.1-1.1-0.3-1.3-0.5c-0.1-0.2-0.1-0.4-0.1-0.5c0.2-0.5,0.5-0.6,0.9-0.5c0.5,0.1,0.8,0.1,0.9,0
				c0.1-0.1,0.2-0.3,0.2-0.5v-3.8l-1.2,0.4c-0.2,0.1-0.4,0.1-0.5,0c-0.2-0.1-0.3-0.2-0.3-0.4c-0.1-0.2-0.1-0.4,0-0.6
				c0.1-0.2,0.2-0.3,0.5-0.3l1.6-0.5V401.7z M143.2,397.6c0-0.2,0.1-0.4,0.2-0.5c0.1-0.1,0.3-0.2,0.5-0.2c0.2,0,0.4,0.1,0.5,0.2
				c0.2,0.1,0.2,0.3,0.2,0.5v3.3h1.7c0.2,0,0.4,0.1,0.5,0.2c0.1,0.1,0.2,0.3,0.2,0.5c0,0.2-0.1,0.4-0.2,0.5
				c-0.1,0.2-0.3,0.2-0.5,0.2h-1.7v7.5l1.3-0.7c0.2-0.1,0.4-0.2,0.6-0.1c0.2,0,0.3,0.1,0.4,0.3c0.1,0.2,0.2,0.4,0.1,0.6
				c0,0.2-0.2,0.3-0.3,0.4l-0.6,0.3c-2.4,1.2-3.8,1.7-4.3,1.5c-0.2-0.1-0.3-0.2-0.4-0.5c-0.1-0.2-0.1-0.4,0-0.6
				c0.1-0.2,0.2-0.3,0.5-0.4l1.3-0.4V397.6z M151.4,399.5c0.2-0.2,0.3-0.3,0.5-0.3c0.2,0,0.3,0,0.5,0.1c0.2,0.1,0.2,0.3,0.3,0.5
				c0,0.7-1.3,2.1-4,4.3v6c0,0.2,0.1,0.4,0.2,0.6c0.2,0.1,0.3,0.2,0.6,0.2l1.1-0.1c0.4-0.2,0.6-0.7,0.6-1.7c0-1.3,0.1-2,0.2-2.1
				c0.1-0.2,0.3-0.2,0.5-0.2c0.2,0,0.4,0.1,0.5,0.2c0.2,0.1,0.2,0.3,0.2,0.6l-0.1,2.7c0,0.4-0.1,0.7-0.3,1.1
				c-0.2,0.4-0.4,0.7-0.8,0.9c-0.2,0.1-0.5,0.2-0.9,0.2h-1.5c-0.4,0-0.7-0.2-1-0.4c-0.5-0.3-0.8-0.8-0.8-1.4v-12.9
				c0-0.3,0.1-0.4,0.2-0.6c0.1-0.1,0.3-0.2,0.5-0.2c0.2,0,0.4,0.1,0.5,0.2c0.2,0.1,0.2,0.3,0.2,0.6v4.5
				C149.9,401.3,150.8,400.4,151.4,399.5z"/>
			<path class="st0" d="M168.2,403.3c-0.2,0-0.4,0-0.5-0.1c-0.2-0.1-0.2-0.3-0.3-0.5c0-0.2,0-0.4,0.1-0.5c0.1-0.1,0.3-0.2,0.5-0.3
				l2.5-0.7l-0.9-0.7c-0.7-0.5-1-0.8-1-0.9c-0.1-0.2,0-0.3,0.1-0.5c0.1-0.2,0.3-0.3,0.4-0.3c0.2,0,0.4,0,0.6,0.1
				c1.3,0.9,2,1.5,2.1,1.7l0.1-0.1c0.8-0.5,1.3-1,1.6-1.5c0.1-0.1,0.1-0.2,0-0.2c-0.1-0.1-0.1-0.1-0.3-0.1h-2.3
				c-0.2,0-0.4-0.1-0.5-0.2c-0.1-0.1-0.2-0.3-0.2-0.5c0-0.2,0.1-0.4,0.2-0.5c0.1-0.1,0.3-0.2,0.5-0.2h3.4c0.3,0,0.5,0.1,0.7,0.2
				c0.2,0.1,0.3,0.3,0.3,0.5c0.1,0.2,0,0.4-0.1,0.7c-0.5,0.8-1.2,1.7-2.2,2.5h0.3c0.3,0,0.5,0.1,0.7,0.3c0.2,0.2,0.3,0.5,0.3,0.7v2
				c0,0.3-0.1,0.5-0.3,0.7c-0.2,0.3-0.5,0.4-0.8,0.4h-2.2c-0.3,0-0.4,0.1-0.4,0.4v0.6c0,0.3,0.1,0.4,0.4,0.4h2.2
				c0.3,0,0.6,0.1,0.8,0.3c0.2,0.2,0.3,0.5,0.3,0.9l-0.1,1.4c-0.1,1.4-0.3,2.3-0.7,2.6c-0.4,0.3-1.1,0.4-2.1,0.3
				c-1.4-0.2-2.2-0.4-2.4-0.7c-0.1-0.2-0.1-0.4-0.1-0.5c0.1-0.2,0.2-0.4,0.3-0.5c0.2-0.1,0.4-0.1,0.6,0c0.9,0.3,1.6,0.4,2.1,0.4
				c0.3,0,0.4-0.1,0.6-0.3c0.1-0.2,0.2-0.3,0.2-0.5c0.1-1.2,0-1.9-0.1-2c-0.1-0.1-0.1-0.1-0.2-0.1h-2.4c-0.3,0-0.5-0.1-0.7-0.3
				c-0.2-0.2-0.3-0.4-0.3-0.7v-2.1c0-0.3,0.1-0.5,0.3-0.7c0.2-0.2,0.4-0.3,0.7-0.3h2.4c0.2,0,0.4-0.1,0.4-0.4v-0.7
				c0-0.3-0.1-0.4-0.4-0.4h-2.1C169.7,402.9,169,403.2,168.2,403.3z M174.8,412.6c-0.2,0.1-0.4,0-0.6-0.1c-0.2-0.1-0.3-0.3-0.3-0.5
				c0-0.2,0-0.4,0.1-0.6c0.1-0.2,0.3-0.2,0.5-0.3c0.8-0.2,1.6-0.5,2.6-0.9l-0.1,0c-1.2-1.2-1.8-2-1.7-2.3c0-0.2,0.1-0.3,0.3-0.4
				l0.3-0.1h-0.4c-0.2,0-0.4-0.1-0.5-0.2c-0.1-0.1-0.2-0.3-0.2-0.5c0-0.2,0.1-0.4,0.2-0.5c0.1-0.1,0.3-0.2,0.5-0.2h5.3
				c0.3,0,0.6,0.2,0.8,0.4c0.2,0.3,0.2,0.6,0.1,1c-0.4,1-1.2,2-2.1,2.8c0.8,0.4,1.8,0.7,3,0.8c0.2,0,0.4,0.1,0.6,0.3
				c0.1,0.2,0.2,0.3,0.2,0.5c0,0.2-0.1,0.4-0.3,0.5c-0.2,0.1-0.4,0.2-0.6,0.2c-1.5-0.1-2.9-0.6-4-1.4
				C177.1,411.8,175.9,412.3,174.8,412.6z M177,403.1v0.4c0,0.9-0.6,1.6-1.6,2.1c-0.2,0.1-0.4,0.1-0.6,0.1c-0.2-0.1-0.3-0.2-0.4-0.4
				c-0.2-0.4-0.1-0.7,0.4-0.9c0.6-0.3,0.9-0.8,0.9-1.4v-0.5c0-0.3,0.1-0.6,0.3-0.8c0.2-0.2,0.5-0.3,0.8-0.3h2.3c0.1,0,0.3,0,0.4,0.1
				l-0.4-0.3c-1.2-0.8-2.2-1.7-3.2-2.6c-0.2-0.2-0.3-0.3-0.3-0.5c0-0.2,0.1-0.3,0.2-0.5c0.2-0.1,0.3-0.2,0.5-0.2
				c0.2,0,0.4,0.1,0.6,0.3l0.9,0.9c0.5-0.5,0.9-0.8,1.2-1.2c0.1-0.2,0.3-0.3,0.5-0.3c0.2,0,0.3,0,0.5,0.1c0.2,0.1,0.2,0.3,0.2,0.5
				c0,0.3-0.4,0.9-1.4,1.7l0.8,0.6l1.1-1.2c0.1-0.2,0.3-0.3,0.5-0.3c0.2,0,0.3,0,0.5,0.1c0.2,0.1,0.2,0.3,0.3,0.4
				c0,0.3-0.4,0.9-1.2,1.6c0.7,0.3,1.4,0.7,2.3,1c0.2,0.1,0.4,0.2,0.5,0.4c0.1,0.2,0.1,0.4,0,0.6c-0.1,0.2-0.2,0.3-0.4,0.4
				c-0.3,0.1-1.3-0.3-3.1-1.2c0.2,0.2,0.3,0.5,0.3,0.8v1.3c0,0.1,0,0.2,0.1,0.3c0.1,0.1,0.2,0.1,0.3,0.1h0.2c0.2,0,0.3-0.1,0.3-0.1
				c0.1-0.1,0.1-0.2,0.1-0.4v0c0-0.2,0.1-0.4,0.2-0.5c0.1-0.1,0.3-0.2,0.4-0.2c0.2,0,0.3,0.1,0.4,0.2c0.1,0.1,0.2,0.3,0.2,0.5v0.1
				c0,0.6-0.3,1-0.7,1.4c-0.2,0.1-0.5,0.2-0.8,0.2h-0.7c-0.3,0-0.5-0.1-0.6-0.2c-0.4-0.3-0.7-0.7-0.6-1.1v-1.1
				c0-0.1-0.1-0.3-0.1-0.3c-0.1-0.1-0.2-0.1-0.3-0.1h-1.2C177.1,402.7,176.9,402.8,177,403.1z M178.3,409.6c0.8-0.6,1.4-1.3,1.7-2
				v-0.2l-0.3-0.1h-3.6c0.2,0.1,0.3,0.2,0.4,0.3c0.4,0.6,0.9,1.1,1.3,1.5L178.3,409.6z"/>
			<path class="st0" d="M201,400.3c0.1,0,0.2,0,0.3,0c0.1,0,0.2,0.1,0.2,0.2c0.1,0.1,0.1,0.2,0,0.4l-2.4,8.2c0,0.1-0.1,0.2-0.2,0.3
				c-0.1,0.1-0.2,0.1-0.4,0c-0.1-0.1-0.2-0.1-0.2-0.2c0-0.1,0-0.2,0-0.3l2.4-8.2C200.8,400.5,200.9,400.3,201,400.3z"/>
			<path class="st0" d="M217.9,407c0-0.2,0-0.3-0.1-0.3c-0.1-0.1-0.2-0.2-0.4-0.1h-1.1c-0.3,0-0.5-0.1-0.6-0.2
				c-0.1-0.2-0.2-0.3-0.2-0.5c0-0.2,0.1-0.4,0.2-0.5c0.1-0.1,0.3-0.2,0.6-0.2h1.8c0.4,0,0.7,0.1,0.9,0.4c0.2,0.2,0.3,0.5,0.3,0.9
				v2.9c0,0.3,0.2,0.6,0.6,0.9l0.7,0.5c-0.2-0.1-0.3-0.3-0.3-0.5c0-0.2,0-0.3,0.1-0.5c0.1-0.2,0.3-0.2,0.5-0.3
				c0.8-0.1,1.6-0.5,2.3-1c0.2-0.1,0.4-0.2,0.5-0.2c0.2,0,0.3,0.1,0.4,0.3c0.1,0.1,0.1,0.3,0.1,0.5c0,0.2-0.1,0.3-0.3,0.5l-0.1,0
				c-1.4,0.8-2.5,1.2-3.3,1.2c0.7,0.3,2,0.5,3.8,0.5l4-0.1c1.5-0.1,2.4,0,2.6,0.2c0.1,0.1,0.2,0.3,0.3,0.5c0,0.2-0.1,0.4-0.2,0.6
				c-0.2,0.2-0.4,0.3-0.7,0.3h-6.9c-2.4,0-4.1-0.5-5-1.5c-0.2,0.3-0.5,0.6-0.9,0.9c-0.9,0.6-1.6,0.9-2,0.7c-0.2-0.1-0.3-0.2-0.4-0.4
				c-0.1-0.5,0.1-0.8,0.5-1l1-0.5c0.5-0.3,0.8-0.9,0.9-1.6V407z M215.6,401.6c-0.1-0.2,0-0.4,0.1-0.5c0.1-0.2,0.2-0.3,0.4-0.4
				c0.2-0.1,0.4,0,0.6,0.1c0.6,0.4,1.3,0.8,2.1,1.5c0.2,0.2,0.3,0.4,0.3,0.5c0,0.2-0.1,0.4-0.2,0.6c-0.2,0.1-0.3,0.2-0.5,0.2
				s-0.4-0.1-0.6-0.2c-0.7-0.6-1.3-1-1.8-1.3C215.8,401.9,215.6,401.8,215.6,401.6z M215.8,398.3c0-0.2,0-0.4,0.1-0.6
				c0.1-0.2,0.2-0.3,0.4-0.4c0.2-0.1,0.4,0,0.6,0.1c0.6,0.3,1.4,0.8,2.1,1.4c0.2,0.2,0.3,0.4,0.3,0.5c0,0.2,0,0.4-0.2,0.6
				c-0.2,0.2-0.3,0.2-0.5,0.3c-0.2,0-0.4-0.1-0.6-0.2c-0.7-0.6-1.3-1-1.8-1.3C216,398.6,215.8,398.4,215.8,398.3z M222.8,405.6h-2
				c-0.2,0-0.4-0.1-0.5-0.2c-0.1-0.1-0.2-0.3-0.2-0.5c0-0.2,0.1-0.3,0.2-0.5c0.1-0.1,0.3-0.2,0.5-0.2h2v-0.8c-1.4,0-2.2-0.1-2.5-0.4
				c-0.2-0.2-0.3-0.5-0.3-0.9v-3.8c0-0.3,0.1-0.5,0.3-0.7c0.2-0.2,0.4-0.3,0.6-0.3h2.9c0.3,0,0.6,0.1,0.8,0.3
				c0.2,0.2,0.3,0.5,0.3,0.8v1.1c0,0.3-0.1,0.5-0.3,0.8c-0.2,0.2-0.5,0.3-0.8,0.3h-2.7v1.1c0,0.2,0.1,0.2,0.2,0.3
				c0.1,0.1,0.3,0.1,0.5,0.1h1.5c0.4,0,0.6-0.2,0.6-0.5c0-0.2,0-0.3,0.1-0.4c0.1-0.1,0.2-0.2,0.4-0.2c0.2,0,0.3,0.1,0.5,0.2
				c0.1,0.1,0.2,0.2,0.2,0.4c0.1,0.7-0.1,1.2-0.3,1.5c-0.2,0.1-0.4,0.2-0.8,0.3v0.8h2.4v-1c-0.2-0.1-0.3-0.2-0.4-0.3
				c-0.2-0.2-0.3-0.5-0.3-0.9v-3.7c0-0.3,0.1-0.5,0.3-0.7c0.2-0.2,0.4-0.3,0.6-0.3h2.8c0.3,0,0.6,0.1,0.8,0.3
				c0.2,0.2,0.3,0.5,0.3,0.8v1.1c0,0.3-0.1,0.5-0.3,0.8c-0.2,0.2-0.5,0.3-0.8,0.3H227v1c0,0.2,0,0.3,0.2,0.3l0.5,0.1h1.4
				c0.4,0,0.6-0.2,0.6-0.6c0-0.2,0-0.3,0.1-0.5c0.1-0.1,0.2-0.2,0.4-0.2c0.2,0,0.3,0.1,0.5,0.2c0.1,0.1,0.2,0.3,0.2,0.4
				c0.1,0.7,0,1.3-0.3,1.6c-0.3,0.2-1.2,0.3-2.7,0.3v0.9h2.2c0.2,0,0.4,0.1,0.5,0.2c0.1,0.1,0.2,0.3,0.2,0.5c0,0.2-0.1,0.3-0.2,0.5
				c-0.1,0.1-0.3,0.2-0.5,0.2h-2.2v1.1h2.8c0.2,0,0.4,0.1,0.5,0.2c0.1,0.1,0.2,0.3,0.2,0.5c0,0.2-0.1,0.3-0.2,0.5
				c-0.1,0.1-0.3,0.2-0.5,0.2h-10c-0.2,0-0.4-0.1-0.5-0.2c-0.1-0.1-0.2-0.3-0.2-0.5c0-0.2,0.1-0.3,0.2-0.5c0.1-0.1,0.3-0.2,0.5-0.2
				h2.3V405.6z M221.3,399.6h2.3l0.2-0.1l0.1-0.2v-0.2c0-0.1-0.1-0.2-0.1-0.3c-0.1-0.1-0.2-0.1-0.3-0.1h-1.8c-0.1,0-0.2,0-0.3,0.1
				c-0.1,0.1-0.1,0.2-0.1,0.3V399.6z M226.5,406.7v-1.1h-2.4v1.1H226.5z M226.9,409.2c-0.1-0.2-0.1-0.3,0-0.6
				c0.1-0.2,0.2-0.3,0.3-0.4c0.2-0.1,0.4-0.1,0.6,0c0.8,0.3,1.7,0.6,2.8,1.2c0.2,0.1,0.3,0.3,0.4,0.5c0.1,0.2,0,0.4-0.1,0.6
				c-0.1,0.2-0.3,0.3-0.4,0.3c-0.2,0.1-0.4,0-0.6-0.1c-1-0.5-1.8-0.9-2.4-1.1C227.1,409.5,227,409.4,226.9,409.2z M227,399.6h2.2
				l0.2-0.1l0.1-0.2v-0.2c0-0.1-0.1-0.2-0.1-0.3c-0.1-0.1-0.2-0.1-0.3-0.1h-1.8c-0.1,0-0.2,0-0.3,0.1c-0.1,0.1-0.1,0.2-0.1,0.3
				V399.6z"/>
			<path class="st0" d="M249.2,401.6h-1.2c-0.3,2-0.7,3.1-1.1,3.3c-0.2,0.1-0.3,0.1-0.5,0c-0.2-0.1-0.3-0.2-0.4-0.4
				c-0.1-0.2-0.1-0.4,0-0.6c0.6-1.5,0.9-3.3,0.9-5.4V398c0-0.2,0.1-0.4,0.2-0.6c0.1-0.1,0.3-0.2,0.5-0.2c0.2,0,0.3,0.1,0.5,0.2
				c0.2,0.2,0.2,0.3,0.2,0.6v0.5l-0.1,1.6h1v-2.7c0-0.2,0.1-0.4,0.2-0.5c0.1-0.1,0.3-0.2,0.5-0.2s0.4,0.1,0.5,0.2
				c0.1,0.1,0.2,0.3,0.2,0.5v2.7h0.9c0.2,0,0.4,0.1,0.5,0.2c0.1,0.1,0.2,0.3,0.2,0.5s-0.1,0.4-0.2,0.5c-0.1,0.1-0.3,0.2-0.5,0.2
				h-0.9v4c0.7-0.4,1.2-0.6,1.4-0.6c0.2,0,0.3,0.2,0.4,0.3c0.1,0.2,0.1,0.3,0.1,0.5c-0.1,0.3-0.7,0.7-1.9,1.3v4.9
				c0,0.2-0.1,0.4-0.2,0.6c-0.1,0.1-0.3,0.2-0.5,0.2c-0.2,0-0.4-0.1-0.5-0.2c-0.1-0.1-0.2-0.3-0.2-0.6v-4.3l-2,0.7
				c-0.2,0.1-0.4,0.1-0.6,0c-0.2-0.1-0.3-0.2-0.4-0.4c-0.1-0.2-0.1-0.4,0-0.6c0.1-0.2,0.2-0.3,0.5-0.4c0.8-0.2,1.7-0.5,2.5-0.8
				V401.6z M256.6,400.4c0,2.1-0.7,4.1-2.1,6.1c-0.6,0.9-1.4,1.7-2.1,2.5c-0.2,0.1-0.4,0.2-0.6,0.2c-0.2,0-0.3-0.1-0.5-0.2l-0.2-0.3
				c-0.1-0.2,0.3-0.7,1-1.5c2-2.3,3.1-4.6,3.1-6.8h-1l-0.2,0.5c-0.8,1.9-1.5,3-2.1,3.1c-0.2,0-0.3-0.1-0.5-0.2
				c-0.2-0.1-0.3-0.3-0.3-0.5c0-0.2,0-0.4,0.2-0.5c1.1-1.4,1.8-3.2,2.1-5.3c0-0.2,0.1-0.4,0.3-0.5c0.2-0.1,0.3-0.2,0.5-0.1
				c0.2,0,0.4,0.1,0.5,0.3c0.2,0.2,0.1,0.8-0.1,1.9h5.4c0.3,0,0.6,0,0.8,0.1c0.2,0.1,0.4,0.3,0.5,0.5c0.1,0.3,0.2,0.6,0.2,0.9
				c0,3.1-0.1,5.7-0.3,7.5c-0.2,1.3-0.4,2.2-0.7,2.9c-0.3,0.5-0.7,1-1.2,1.3c-0.3,0.2-0.8,0.3-1.4,0.3c-0.6,0-1.2-0.1-1.8-0.3
				c-0.2-0.1-0.4-0.2-0.5-0.3c-0.1-0.2-0.1-0.4,0-0.6c0.1-0.4,0.5-0.6,0.9-0.5c1.1,0.3,1.8,0.3,2.2,0.1c0.4-0.3,0.7-0.7,0.9-1.2
				c0.3-0.7,0.5-3.2,0.5-7.4c0-1-0.1-1.6-0.1-1.7c-0.1-0.1-0.2-0.2-0.4-0.2h-0.4v0.3c-0.1,4.6-1.6,8.1-4.4,10.6
				c-0.8,0.6-1.3,0.8-1.6,0.8c-0.2,0-0.4-0.2-0.5-0.3c-0.2-0.4-0.1-0.8,0.4-1.1c3.1-2,4.7-5.3,4.7-10v-0.3H256.6z"/>
		</g>
		<g>
			<path class="st1" d="M110.7,318.8v-1c0-1.5-1.3-2.8-2.8-2.8H83.9c-3.4,0-6.2,2.8-6.2,6.2v56.9c0,1.5,1.3,2.8,2.8,2.8h1
				c1.5,0,2.8-1.3,2.8-2.8v-18.9l9,9l-6.1,6.1c-1.1,1.1-1.1,2.9,0,4l0.7,0.7c1.1,1.1,2.9,1.1,4,0l6.1-6.1l6.1,6.1
				c1.1,1.1,2.9,1.1,4,0l0.7-0.7c1.1-1.1,1.1-2.9,0-4l-6.1-6.1l6.3-6.3c1.2-1.2,1.8-2.8,1.8-4.4v-16.5c0-3.4-2.8-6.2-6.2-6.2H84.3
				v-10.1c0-1.7,1.4-3.1,3.1-3.1h20.5C109.4,321.6,110.7,320.4,110.7,318.8z M104.1,344.5v11.2c0,1.1-0.4,2.2-1.2,2.9l-4.9,4.9
				L84.3,350v-8.5H101C102.7,341.4,104.1,342.8,104.1,344.5z M41.9,308.4h-1c-1.5,0-2.8,1.3-2.8,2.8v4.2c0,3.4,2.8,6.2,6.2,6.2h23.9
				c1.5,0,2.8-1.3,2.8-2.8v-1c0-1.5-1.3-2.8-2.8-2.8H47.8c-1.7,0-3.1-1.4-3.1-3.1v-0.7C44.7,309.7,43.5,308.4,41.9,308.4z M44.4,381
				h20.2c1.2,0,2.4-0.5,3.3-1.4l0,0c1.8-1.8,1.8-4.8,0-6.6l-8.1-8.1c-1.1-1.1-2.9-1.1-4,0l-0.7,0.7c-1.1,1.1-1.1,2.9,0,4l4.8,4.8
				h-12c-1.7,0-3.1-1.4-3.1-3.1v-10.1h20.2c3.4,0,6.2-2.8,6.2-6.2v-20.5c0-3.4-2.8-6.2-6.2-6.2H44.4c-3.4,0-6.2,2.8-6.2,6.2v40.3
				C38.1,378.2,40.9,381,44.4,381z M47.8,334.8h13.6c1.7,0,3.1,1.4,3.1,3.1v3.5H44.7v-3.5C44.7,336.2,46.1,334.8,47.8,334.8z
				 M44.7,348h19.8v3.5c0,1.7-1.4,3.1-3.1,3.1H44.7V348z"/>
			<path class="st1" d="M229.5,328.3h-13.2v-10.4c0-1.5-1.3-2.8-2.8-2.8h-1c-1.5,0-2.8,1.3-2.8,2.8v38.8c0,1.7,0.7,3.2,1.8,4.4
				l6.7,6.7l-6.5,6.5c-1.1,1.1-1.1,2.9,0,4l0.7,0.7c1.1,1.1,2.9,1.1,4,0l6.5-6.5l6.5,6.5c1.1,1.1,2.9,1.1,4,0l0.7-0.7
				c1.1-1.1,1.1-2.9,0-4l-6.5-6.5l6.7-6.7c1.2-1.2,1.8-2.8,1.8-4.4v-32.2c0-1.5-1.3-2.8-2.8-2.8h-1c-1.5,0-2.8,1.3-2.8,2.8V328.3z
				 M228.2,357.8l-5.4,5.4l-5.4-5.4c-0.8-0.8-1.2-1.8-1.2-2.9v-20h13.2v20C229.5,355.9,229,357,228.2,357.8z M266.2,361.2h-7.6
				c-1.5,0-2.8,1.3-2.8,2.8v1c0,1.5,1.3,2.8,2.8,2.8h7.6c1.5,0,2.8-1.3,2.8-2.8v-1C269,362.5,267.8,361.2,266.2,361.2z M245.5,367.8
				h1c1.5,0,2.8-1.3,2.8-2.8v-1c0-1.5-1.3-2.8-2.8-2.8h-1c-1.5,0-2.8,1.3-2.8,2.8v1C242.6,366.6,243.9,367.8,245.5,367.8z
				 M282.2,312.2v-1c0-1.5-1.3-2.8-2.8-2.8h-30.5c-3.4,0-6.2,2.8-6.2,6.2v6.9h0v6.6h0v6.6h0v6.6h0v7c0,3.4,2.8,6.2,6.2,6.2h0.4v0
				h13.2v0h6.6l3.5,0c1.7,0,3.1,1.4,3.1,3.1v13.5c0,1.7-1.4,3.1-3.1,3.1h-7.3c-1.5,0-2.8,1.3-2.8,2.8v1c0,1.5,1.3,2.8,2.8,2.8H276
				c3.4,0,6.2-2.8,6.2-6.2v-20.5c0-3.4-2.8-6.2-6.2-6.2h-7v-6.6h10.4c1.5,0,2.8-1.3,2.8-2.8v-1c0-1.5-1.3-2.8-2.8-2.8H269v-6.6h10.4
				c1.5,0,2.8-1.3,2.8-2.8v-1c0-1.5-1.3-2.8-2.8-2.8H269V315h10.4C281,315,282.2,313.8,282.2,312.2z M262.4,348h-10.1
				c-1.7,0-3.1-1.4-3.1-3.1v-3.5h13.2V348z M262.4,334.8h-13.2v-6.6h13.2V334.8z M262.4,321.6h-13.2v-3.5c0-1.7,1.4-3.1,3.1-3.1
				h10.1V321.6z"/>
			<g>
				<circle class="st1" cx="147" cy="377.7" r="3.3"/>
				<path class="st1" d="M190.2,308.4h-60.1c-3.4,0-6.2,2.8-6.2,6.2v60.1c0,3.4,2.8,6.2,6.2,6.2h3.7c1.8,0,3.3-1.5,3.3-3.3
					c0-1.8-1.5-3.3-3.3-3.3h-0.2c-1.7,0-3.1-1.4-3.1-3.1v-53.1c0-1.7,1.4-3.1,3.1-3.1l23.3,0v6.6h-13.6c-3.4,0-6.2,2.8-6.2,6.2v20.5
					c0,3.4,2.8,6.2,6.2,6.2l33.7,0c3.4,0,6.2-2.8,6.2-6.2l0-20.5c0-3.4-2.8-6.2-6.2-6.2h-13.6v-6.6l23.3,0c1.7,0,3.1,1.4,3.1,3.1
					v53.1c0,1.7-1.4,3.1-3.1,3.1h-0.2c-1.8,0-3.3,1.5-3.3,3.3c0,1.8,1.5,3.3,3.3,3.3h3.7c3.4,0,6.2-2.8,6.2-6.2v-60.1
					C196.5,311.2,193.7,308.4,190.2,308.4z M156.9,348h-10.1c-1.7,0-3.1-1.4-3.1-3.1v-3.5h13.2V348z M156.9,334.8h-13.2v-3.5
					c0-1.7,1.4-3.1,3.1-3.1h10.1V334.8z M176.7,344.9c0,1.7-1.4,3.1-3.1,3.1h-10.1v-6.6h13.2V344.9z M173.6,328.2
					c1.7,0,3.1,1.4,3.1,3.1v3.5h-13.2v-6.6H173.6z"/>
				<path class="st1" d="M183.3,364.5c0-1.8-1.5-3.3-3.3-3.3h-39.5c-1.8,0-3.3,1.5-3.3,3.3v0c0,1.8,1.5,3.3,3.3,3.3h29.6v3.5
					c0,1.7-1.4,3.1-3.1,3.1h-6.8c-1.8,0-3.3,1.5-3.3,3.3c0,1.8,1.5,3.3,3.3,3.3h10.3c3.4,0,6.2-2.8,6.2-6.2v-7h3.3
					C181.8,367.8,183.3,366.3,183.3,364.5L183.3,364.5z"/>
			</g>
		</g>
	</g>
	<g>
		<g>
			<path class="st2" d="M305.1,159.3c-6-15.5-14.5-32.1-23.3-43.6s-12.1-17.2-21.9-26.4c-28-26.3-63.6-33.6-99.8-34.1
				C124,55.7,88.4,63,60.4,89.3c-9.7,9.2-13,14.9-21.9,26.4s-17.3,28.1-23.3,43.6C9.4,174.4,4.3,186.5,6,212
				c2.8,40.6,32.8,59,46.1,64.5c14.2,5.9,55,13.2,108,13.2s93.8-7.3,108-13.2c13.3-5.5,43.3-23.8,46.1-64.5
				C316.1,186.5,310.9,174.4,305.1,159.3z"/>
			<path class="st3" d="M160.2,257.7c-59.2,0-72.8,4.4-72.8,7.6c0,3.2,30.6,7.3,72.8,7.6c42.2-0.2,72.8-4.4,72.8-7.6
				C232.9,262.1,219.4,257.7,160.2,257.7z"/>
			<path class="st4" d="M64.2,276.4c10.5-38.6-39.3-60.1-51.8-44.8c0,0-1.1,14.8,16.2,29.6C45.8,275.9,64.2,276.4,64.2,276.4z"/>
			<path class="st4" d="M256.1,276.4c-10.5-38.6,39.3-60.1,51.8-44.8c0,0,1.1,14.8-16.2,29.6C274.5,275.9,256.1,276.4,256.1,276.4z"
				/>
			<path class="st0" d="M160.2,295.3c-50.7,0-93.8-6.9-110.2-13.6c-7.7-3.2-46.3-21.5-49.6-69.3c-1.8-25.7,3.2-38.5,8.9-53.3
				l0.7-1.9c6.7-17.5,15.5-33.9,24.1-45c2.2-2.8,4.1-5.4,5.7-7.6c5.3-7.1,9.1-12.2,16.8-19.5c25.1-23.6,58-35,103.6-35.7
				c0.1,0,0.1,0,0.2,0c45.5,0.7,78.4,12,103.6,35.7c7.7,7.2,11.5,12.4,16.8,19.5c1.7,2.2,3.5,4.8,5.7,7.6
				c8.6,11.1,17.4,27.5,24.1,45l0,0l0.7,1.9c5.7,14.8,10.6,27.5,8.9,53.3c-3.3,47.8-41.9,66.2-49.6,69.3
				C254,288.5,210.9,295.3,160.2,295.3z M160.2,60.9c-42.5,0.7-72.9,11-95.9,32.6c-6.9,6.5-10.3,11.1-15.4,17.9
				c-1.7,2.3-3.6,4.8-5.8,7.7c-7.8,10.1-16.2,25.9-22.5,42.2l-0.7,1.9c-5.4,14.1-9.7,25.2-8.1,48.4c2.8,41.1,36,56.9,42.6,59.6
				c11.9,4.9,51.2,12.8,105.9,12.8c29,0,83.4-3.5,105.9-12.8c6.6-2.7,39.8-18.5,42.6-59.6c1.6-23.2-2.7-34.3-8.1-48.4l-0.7-1.9
				c-6.3-16.3-14.7-32-22.5-42.2c-2.2-2.9-4.1-5.5-5.8-7.7c-5.1-6.9-8.5-11.4-15.4-18C233.1,71.9,202.7,61.5,160.2,60.9z"/>
			<path class="st0" d="M64.2,282.1c-0.5,0-1-0.1-1.5-0.2c-3-0.8-4.8-3.9-4-7c5.1-18.7-6.2-32.1-18.5-38.5c-9.6-5-19.9-5.5-23.4-1.2
				c-2,2.4-5.6,2.8-8,0.8c-2.4-2-2.8-5.6-0.8-8c7.2-8.7,22.5-9.3,37.4-1.6c15.5,8,31.1,26.3,24.3,51.6
				C69,280.4,66.7,282.1,64.2,282.1z"/>
			<path class="st0" d="M256.1,282.1c-2.5,0-4.8-1.7-5.5-4.2c-6.9-25.2,8.8-43.5,24.3-51.6c14.9-7.7,30.3-7.1,37.4,1.6
				c2,2.4,1.7,6-0.8,8c-2.4,2-6,1.7-8-0.8c-3.5-4.3-13.8-3.7-23.4,1.2c-12.3,6.4-23.6,19.8-18.5,38.5c0.8,3-1,6.2-4,7
				C257.1,282,256.6,282.1,256.1,282.1z"/>
		</g>
		<g>
			<path class="st0" d="M115.2,150.2c0.2,0.1,0.5,0.1,0.7,0.2c3.7,1,12.3,5.3,16,3.8c6.2-2.5-3.4-8.8-7-9.7
				c-7.9-1.9-15.8-4-23.8-5.3c-2.2-0.3-7.5-2.1-8.4,1.1c-0.7,2.5,4,4.8,5.7,5.3C104.1,147.1,109.7,148.7,115.2,150.2z"/>
			<path class="st0" d="M224.6,134.9c-2.6-0.9-6.1,0.8-8.6,1.6c-8.2,2.6-16.2,5.8-24.4,8.4c-2.1,0.7-4.5,1.7-4.8,3.9
				c-0.3,2.3,2.1,4.1,4.4,4.1c3.5,0,8.2-2.5,11.7-3.3c6.5-1.6,13-3.4,19.5-5.1c3.4-0.9,6.8-4.4,4.3-8
				C226.1,135.6,225.4,135.2,224.6,134.9z"/>
			<path class="st0" d="M164.1,177.5c-1.2-2.4-1.8-6.3-5-6.4c-3.2,0.2-3.8,4-5,6.4c-3.3,0.5-8.6,3.9-5,6.5c2.8,2.1,5.9,2.5,9.9,2.5
				s7.1-0.5,9.9-2.5C172.7,181.3,167.4,177.9,164.1,177.5z"/>
			<path class="st0" d="M125.8,174.7c-0.7-1.7-1.8-3.2-3.2-4.4c-3.5-3-8.6-4-12.8-2.3c-4.2,1.7-7.2,6.3-6.8,10.9
				c1.3,13.4,25.1,10.5,23.3-2.3C126.2,175.9,126.1,175.3,125.8,174.7z"/>
			<path class="st0" d="M203.8,165.4c-12.3,0.9-13.9,15.4-3.1,20c7.7,1.2,17.3-1.8,14.8-11.8C214.2,168.6,208.9,165,203.8,165.4z"/>
			<path class="st0" d="M182.4,194c-3.9,1.2-7.8,2.7-11.4,4.5c-2.7,1.4-7.6,6.1-10.4,6.2c-1.2,0.1-4.6-3.2-5.6-3.9
				c-1.9-1.2-3.9-2.3-5.9-3.3c-4.3-2.1-8.8-3.8-13.5-5.2c-3.9-1.2-5.6,4.9-1.7,6.1c5.9,1.7,11.5,4,16.7,7.1
				c2.9,1.7,6.5,5.8,10.1,5.9c3,0.1,5.7-2.9,8-4.3c4.8-3.1,10-5.4,15.5-7.1C188,198.9,186.3,192.8,182.4,194z"/>
		</g>
		<g>
			<path class="st0" d="M283.3,98.4c4,0.8,13.6-5.1,10.8-19c-2.9-14.4-11-16.1-18.9-14.3c7.1-10.8,6-23.1-7.4-34.3
				c-13.3-11.2-31-6-34.5-1.7c0-8.1-4.7-15-11.8-18.9c-8.7-4.8-19.1-5.3-27.6,0.1c-2.7,1.7-4.9,3.9-6.7,6.4
				C184.3,4.9,171.7-0.1,160.2,0c-11.5-0.1-24.1,4.9-26.9,16.7c-1.8-2.5-4.1-4.7-6.7-6.4c-8.5-5.4-18.9-5-27.6-0.1
				C91.8,14.1,87.1,21,87.1,29.1c-3.5-4.3-21.2-9.4-34.5,1.7s-14.5,23.5-7.4,34.3c-8-1.7-16-0.1-18.9,14.3
				c-2.8,13.8,6.8,19.8,10.8,19c-14.4,9.1-16.9,27.8-14,35.8c8.4,23.2,42.5,6.5,43.8-7.4c0.9,11,15.1,10.7,26.7,4.9
				c7.9-4,15.7-11.6,16-18.6c1.2,5.5,9.3,20.2,50.6,20.2s49.4-14.6,50.6-20.2c0.2,7,8,14.6,16,18.6c11.6,5.8,25.8,6.1,26.7-4.9
				c1.3,13.9,35.4,30.6,43.8,7.4C300.2,126.2,297.7,107.5,283.3,98.4z"/>
			<path class="st5" d="M90.9,74.6c-1.1,0-2.3-0.5-3-1.5c-1.3-1.7-1-4,0.7-5.3c1-0.8,25.7-19.4,71.6-19.4s70.5,18.6,71.6,19.4
				c1.7,1.3,2,3.7,0.7,5.3c-1.3,1.7-3.6,2-5.3,0.7c-0.1-0.1-6-4.5-17.1-8.9c-10.3-4.1-27.3-8.9-49.8-8.9c-43.3,0-66.7,17.6-67,17.8
				C92.5,74.3,91.7,74.6,90.9,74.6z"/>
		</g>
	</g>
</g>
</svg>
